<?xml version="1.0" encoding="UTF-8" standalone="no"?>
<!-- Created with Inkscape (http://www.inkscape.org/) -->

<svg
   xmlns:dc="http://purl.org/dc/elements/1.1/"
   xmlns:cc="http://creativecommons.org/ns#"
   xmlns:rdf="http://www.w3.org/1999/02/22-rdf-syntax-ns#"
   xmlns:svg="http://www.w3.org/2000/svg"
   xmlns="http://www.w3.org/2000/svg"
   xmlns:xlink="http://www.w3.org/1999/xlink"
   xmlns:sodipodi="http://sodipodi.sourceforge.net/DTD/sodipodi-0.dtd"
   xmlns:inkscape="http://www.inkscape.org/namespaces/inkscape"
   sodipodi:docname="gnonograms-elementary.svg"
   inkscape:version="0.91 r13725"
   version="1.1"
   id="svg2"
   height="48.001793"
   width="48.011501"
   inkscape:export-filename="/media/Shared/shared_data/Vala/Gnonograms/gnonograms-common-data/icons/gnonograms3-32.xpm.png"
   inkscape:export-xdpi="11.25"
   inkscape:export-ydpi="11.25">
  <sodipodi:namedview
     id="base"
     pagecolor="#ffffff"
     bordercolor="#666666"
     borderopacity="1.0"
     inkscape:pageopacity="0.0"
     inkscape:pageshadow="2"
     inkscape:zoom="2.2788093"
     inkscape:cx="-122.11751"
     inkscape:cy="27.21223"
     inkscape:document-units="px"
     inkscape:current-layer="layer1"
     showgrid="false"
     inkscape:window-width="1920"
     inkscape:window-height="1017"
     inkscape:window-x="0"
     inkscape:window-y="30"
     inkscape:window-maximized="1"
     fit-margin-top="0"
     fit-margin-left="0"
     fit-margin-right="0"
     fit-margin-bottom="0" />
  <defs
     id="defs4">
    <inkscape:path-effect
       is_visible="true"
       id="path-effect2852"
       effect="spiro" />
    <linearGradient
       id="linearGradient10390">
      <stop
         style="stop-color:#180297;stop-opacity:0.95384616;"
         offset="0"
         id="stop10392" />
      <stop
         style="stop-color:#fdfbff;stop-opacity:0.99230766;"
         offset="1"
         id="stop10394" />
    </linearGradient>
    <filter
       id="filter8348"
       inkscape:label="Specular light"
       inkscape:menu="ABCs"
       inkscape:menu-tooltip="Basic specular bevel to use for building textures"
       style="color-interpolation-filters:sRGB">
      <feGaussianBlur
         id="feGaussianBlur8350"
         result="result0"
         in="SourceAlpha"
         stdDeviation="6" />
      <feSpecularLighting
         id="feSpecularLighting8352"
         specularExponent="25"
         specularConstant="1"
         surfaceScale="10"
         lighting-color="#ffffff"
         result="result1"
         in="result0">
        <feDistantLight
           id="feDistantLight8354"
           azimuth="235"
           elevation="45" />
      </feSpecularLighting>
      <feComposite
         id="feComposite8356"
         in2="result1"
         k3="1"
         k2="1"
         operator="arithmetic"
         result="result4"
         in="SourceGraphic"
         k1="0"
         k4="0" />
      <feComposite
         id="feComposite8358"
         in2="SourceAlpha"
         operator="in"
         result="result2"
         in="result4" />
    </filter>
    <linearGradient
       inkscape:collect="always"
       xlink:href="#linearGradient10390"
       id="linearGradient3892"
       gradientUnits="userSpaceOnUse"
       gradientTransform="matrix(0.06190263,0,0,0.07908815,57.946327,873.56165)"
       spreadMethod="pad"
       x1="214.44977"
       y1="1019.2225"
       x2="842.30292"
       y2="836.70795" />
  </defs>
  <metadata
     id="metadata7">
    <rdf:RDF>
      <cc:Work
         rdf:about="">
        <dc:format>image/svg+xml</dc:format>
        <dc:type
           rdf:resource="http://purl.org/dc/dcmitype/StillImage" />
        <dc:title></dc:title>
      </cc:Work>
    </rdf:RDF>
  </metadata>
  <g
     id="layer1"
     inkscape:groupmode="layer"
     inkscape:label="Layer 1"
     transform="translate(-56.25038,-908.75578)">
    <path
       sodipodi:nodetypes="saacsscssaaccaccssccascsssscss"
       inkscape:original-d="m 87.797167,956.57688 c 2.592224,0.77139 3.587617,-5.22106 5.896726,-6.93983 0.650558,-0.48426 1.408961,-1.04802 2.150603,-0.88221 1.359564,0.30396 5.283454,5.15243 3.278316,3.2316 0,0 -4.393988,-2.78126 -3.319057,-0.2218 1.04763,2.49437 8.781175,12.286 3.994272,4.03148 -1.259619,-2.17207 0.195153,-6.91694 0.195153,-6.91694 0,0 -1.358003,-0.58581 -2.213,-0.61729 -12.398703,-0.45647 -2.956199,0.56669 -5.310189,-2.37678 -2.746005,-3.43363 -4.668971,-3.77713 -5.222032,-6.89667 -1.145275,-6.45992 0.252354,-16.01611 4.941477,-18.84109 0.785855,-0.47344 -0.637588,-4.28076 2.433679,1.19251 1.075005,2.02951 2.522157,20.68097 2.854902,14.95702 2.973483,-0.53181 6.370143,-15.55843 3.189993,-22.10432 -1.928363,-3.96927 -9.437956,-5.36572 -11.053647,-5.3673 -7.423547,-0.26572 -10.827007,-0.0881 -15.95088,5.82911 -3.914887,4.50262 -4.654485,6.41659 -6.670777,5.27157 -34.984372,-19.86706 -13.074386,-2.80843 -8.130446,7.52932 0.988408,2.06676 -2.562549,2.3889 -2.562549,2.3889 0,0 -0.827619,15.73617 0.20049,23.8643 0.591208,0.24441 2.012809,-2.40932 3.113112,-3.50074 2.479552,-2.45958 4.776959,-6.45242 7.832774,-6.8396 101.279283,-12.83259 7.150418,5.17709 8.185838,4.93859 0.721291,0.0554 -3.087347,-2.99791 -2.982195,-1.87732 0.105152,1.12056 -1.873684,7.97308 -0.968051,8.02401 1.29182,0.0726 -62.0122215,-9.26167 6.452381,-6.64616 12.35311,0.47193 3.946822,-0.94702 7.388396,-2.50299 3.441573,-1.55597 3.668956,6.01715 4.385708,4.90666 5.814041,1.64871 -3.444937,0.86263 -5.520029,0.13002 -2.986178,-1.05431 1.765148,5.74673 3.409032,6.23595 z"
       inkscape:path-effect="#path-effect2852"
       id="path2848"
       d="m 87.797167,956.57688 c 0.745405,-0.21364 1.401762,-0.67795 1.93448,-1.2414 0.532719,-0.56346 0.950535,-1.22496 1.330946,-1.90065 0.760822,-1.35138 1.423583,-2.8249 2.6313,-3.79778 0.613323,-0.49406 1.364214,-0.83911 2.150603,-0.88221 0.862396,-0.0473 1.738843,0.28437 2.353931,0.89069 0.615088,0.60633 0.959267,1.47792 0.924385,2.34091 -0.387759,-0.48926 -0.987509,-0.80431 -1.610409,-0.84593 -0.6229,-0.0416 -1.259236,0.19081 -1.708648,0.62413 -0.492161,0.47454 -0.747667,1.17557 -0.706672,1.85801 0.041,0.68244 0.369643,1.3375 0.871572,1.80169 0.501928,0.4642 1.168764,0.73868 1.85019,0.79408 0.681425,0.0554 1.374332,-0.10361 1.979182,-0.4223 0.619333,-0.32633 1.149633,-0.81971 1.519733,-1.41393 0.37009,-0.59422 0.57903,-1.28775 0.59878,-1.98752 0.0197,-0.69977 -0.14976,-1.40398 -0.48577,-2.01812 -0.336,-0.61415 -0.83764,-1.13664 -1.43759,-1.49737 -0.741602,-0.19129 -1.479458,-0.3971 -2.213,-0.61729 -1.866576,-0.56028 -3.73513,-1.22908 -5.310189,-2.37678 -2.35119,-1.71324 -3.845001,-4.33404 -5.222032,-6.89667 -0.9814,-1.82637 -1.943636,-3.67404 -2.614689,-5.63579 -0.671054,-1.96175 -1.044823,-4.0547 -0.816378,-6.11542 0.228444,-2.06073 1.097051,-4.0896 2.622712,-5.49357 0.76283,-0.70199 1.681251,-1.23969 2.676995,-1.52811 0.995744,-0.28842 2.068168,-0.32381 3.072837,-0.0682 0.880581,0.22404 1.694457,0.66415 2.433679,1.19251 2.27867,1.62869 3.896406,4.1558 4.421541,6.90702 0.525135,2.75121 -0.04806,5.69652 -1.566639,8.05 3.523823,-2.30291 5.986553,-6.16518 6.587833,-10.33162 0.60128,-4.16643 -0.66893,-8.56743 -3.39784,-11.7727 -2.730303,-3.20691 -6.847121,-5.15756 -11.053647,-5.3673 -2.880736,-0.14364 -5.765587,0.49128 -8.439983,1.5715 -2.674396,1.08022 -5.152515,2.5971 -7.510897,4.25761 -2.318349,1.63233 -4.532942,3.40907 -6.670777,5.27157 -2.785272,2.42655 -5.44003,4.99801 -8.130446,7.52932 -0.850518,0.80022 -1.704713,1.59653 -2.562549,2.3889 l 0.20049,23.8643 c 1.098489,-1.11091 2.138131,-2.28 3.113112,-3.50074 1.103939,-1.3822 2.128986,-2.83507 3.371934,-4.09374 1.242948,-1.25867 2.74112,-2.33145 4.46084,-2.74586 1.717692,-0.41392 3.59409,-0.1242 5.106947,0.78852 1.512858,0.91272 2.644106,2.43754 3.078891,4.15007 -0.699133,-0.98137 -1.795011,-1.67124 -2.982195,-1.87732 -1.145335,-0.19882 -2.367997,0.0559 -3.323402,0.71811 -0.955405,0.66221 -1.626779,1.72892 -1.783967,2.88071 -0.157189,1.15178 0.210357,2.3701 0.99807,3.22499 0.787712,0.85488 1.985185,1.32202 3.141248,1.2002 0.794079,-0.0837 1.54644,-0.42974 2.184277,-0.91009 0.637836,-0.48034 1.167572,-1.09132 1.630414,-1.74197 0.925685,-1.30129 1.603225,-2.77749 2.63769,-3.9941 0.890082,-1.0468 2.040747,-1.88076 3.335251,-2.34153 1.294503,-0.46076 2.732017,-0.53917 4.053145,-0.16146 1.11241,0.31804 2.13118,0.95667 2.902213,1.81929 0.771034,0.86261 1.291788,1.94638 1.483495,3.08737 -0.746997,-0.69167 -1.768614,-1.0782 -2.786377,-1.05423 -1.017763,0.024 -2.020049,0.45817 -2.733652,1.18425 -0.563836,0.57369 -0.946992,1.32425 -1.071943,2.11887 -0.12495,0.79462 0.01041,1.62939 0.388069,2.33961 0.377661,0.71021 0.996742,1.29084 1.733352,1.61401 0.73661,0.32317 1.586303,0.38508 2.359554,0.16346 z"
       style="opacity:1;fill:url(#linearGradient3892);fill-opacity:1;fill-rule:nonzero;stroke:#000000;stroke-width:0.09866629;stroke-linecap:round;stroke-linejoin:bevel;stroke-miterlimit:4;stroke-dasharray:none;stroke-dashoffset:0;stroke-opacity:1"
       inkscape:connector-curvature="0" />
  </g>
</svg>
