<?xml version="1.0" encoding="UTF-8" standalone="no"?>
<!-- Generator: Adobe Illustrator 19.1.0, SVG Export Plug-In . SVG Version: 6.00 Build 0)  -->

<svg
   xmlns:dc="http://purl.org/dc/elements/1.1/"
   xmlns:cc="http://creativecommons.org/ns#"
   xmlns:rdf="http://www.w3.org/1999/02/22-rdf-syntax-ns#"
   xmlns:svg="http://www.w3.org/2000/svg"
   xmlns="http://www.w3.org/2000/svg"
   xmlns:sodipodi="http://sodipodi.sourceforge.net/DTD/sodipodi-0.dtd"
   xmlns:inkscape="http://www.inkscape.org/namespaces/inkscape"
   version="1.1"
   id="Capa_1"
   x="0px"
   y="0px"
   viewBox="0 0 24 24"
   xml:space="preserve"
   sodipodi:docname="head-thinking-symbolic.svg"
   inkscape:version="0.92.5 (2060ec1f9f, 2020-04-08)"
   width="24"
   height="24"><metadata
   id="metadata1046"><rdf:RDF><cc:Work
       rdf:about=""><dc:format>image/svg+xml</dc:format><dc:type
         rdf:resource="http://purl.org/dc/dcmitype/StillImage" /><dc:title></dc:title></cc:Work></rdf:RDF></metadata><defs
   id="defs1044">




	</defs><sodipodi:namedview
   pagecolor="#ffffff"
   bordercolor="#666666"
   borderopacity="1"
   objecttolerance="10"
   gridtolerance="10"
   guidetolerance="10"
   inkscape:pageopacity="0"
   inkscape:pageshadow="2"
   inkscape:window-width="1920"
   inkscape:window-height="1049"
   id="namedview1042"
   showgrid="true"
   inkscape:zoom="20.186987"
   inkscape:cx="17.236787"
   inkscape:cy="5.5399189"
   inkscape:window-x="0"
   inkscape:window-y="0"
   inkscape:window-maximized="1"
   inkscape:current-layer="Capa_1"
   fit-margin-top="0"
   fit-margin-left="0"
   fit-margin-right="0"
   fit-margin-bottom="0"
   inkscape:pagecheckerboard="true"
   width="31px"><inkscape:grid
     type="xygrid"
     id="grid87" /></sodipodi:namedview>
<path
   id="path1062"
   mask="none"
   style="fill:#dbdbdb;fill-opacity:1;stroke:#666666;stroke-width:0.623;stroke-miterlimit:4;stroke-dasharray:none;stroke-opacity:1"
   d="M 13.326172 0.9921875 C 11.815788 0.9921875 10.390484 1.2798099 9.1132812 1.7929688 C 5.7427403 3.1208798 3.4121094 6.0144123 3.4121094 9.3769531 L 3.4121094 10.5 L 3.4121094 10.767578 L 1.4023438 14.027344 C 0.89358281 14.851098 1.3770351 15.523437 2.46875 15.523438 L 3.4121094 15.523438 L 3.4121094 15.541016 L 3.4121094 16.957031 L 3.4121094 18.619141 C 3.4121094 19.586941 4.3449623 20.378907 5.484375 20.378906 L 8.3300781 20.019531 L 8.3359375 22.435547 L 8.3359375 22.453125 C 8.3518365 22.763722 8.659445 22.966125 9.0410156 22.912109 L 19.292969 21.373047 C 19.679838 21.314518 20 20.99521 20 20.662109 L 20 20.279297 L 20 19.96875 L 20 15.541016 C 21.966156 14.010546 23.195313 11.808895 23.195312 9.3691406 C 23.190113 4.7417082 18.774154 0.9921875 13.326172 0.9921875 z M 16.863281 3.0449219 C 16.994855 3.0489732 17.159037 3.1181002 17.384766 3.2421875 C 18.067908 3.6176952 18.141067 3.8865925 17.744141 4.5546875 C 17.409386 5.1181259 17.333224 5.3275327 17.330078 5.6894531 C 17.322578 6.264077 17.794472 6.9830436 18.267578 7.125 C 18.39679 7.163771 18.681196 7.1727726 19.050781 7.1503906 C 19.586059 7.1178846 19.641944 7.1231035 19.761719 7.2265625 C 20.003889 7.4358838 20.065919 8.3007152 19.869141 8.71875 C 19.75948 8.951882 19.625722 8.9860576 18.958984 8.9492188 C 18.444231 8.9208238 18.340033 8.9308042 18.169922 9.0195312 C 17.697191 9.2660045 17.333984 9.893663 17.333984 10.466797 C 17.333984 10.815154 17.433986 11.083875 17.726562 11.525391 C 17.96319 11.882355 18.055206 12.140829 18 12.296875 C 17.890638 12.606294 17.232264 13.056641 16.888672 13.056641 C 16.638036 13.056641 16.54713 12.955856 16.294922 12.394531 C 16.014099 11.769826 15.913383 11.630989 15.623047 11.482422 C 15.273387 11.303537 14.627612 11.296095 14.306641 11.466797 C 14.042822 11.607149 13.914435 11.785035 13.572266 12.488281 L 13.310547 13.029297 L 13.087891 13.042969 C 12.933962 13.053009 12.783959 13.016085 12.601562 12.921875 C 12.042015 12.632786 11.828502 12.339222 11.933594 12.007812 C 11.963564 11.913543 12.064121 11.721146 12.158203 11.580078 C 12.620447 10.887505 12.702825 10.4359 12.466797 9.8789062 C 12.279757 9.4373411 12.106863 9.2238883 11.806641 9.0625 C 11.541623 8.9200494 11.51291 8.9168357 10.931641 8.9511719 C 10.455315 8.9793209 10.30339 8.969871 10.191406 8.90625 C 10.010433 8.8034124 9.9835319 8.7249043 9.9511719 8.1855469 C 9.9204599 7.6694559 9.9837803 7.3913778 10.171875 7.2285156 C 10.290451 7.1260905 10.348655 7.119826 10.933594 7.1523438 C 11.509994 7.1843588 11.581575 7.1773437 11.763672 7.0742188 C 12.216028 6.8178199 12.595414 6.1797545 12.599609 5.6679688 C 12.599609 5.3481796 12.514822 5.123733 12.15625 4.53125 C 12.034527 4.3300988 11.923633 4.080947 11.908203 3.9765625 C 11.882733 3.804631 11.900989 3.7643826 12.113281 3.5507812 C 12.5356 3.1230694 13.118723 2.9216272 13.314453 3.1367188 C 13.359383 3.1857778 13.49471 3.4414536 13.615234 3.7050781 C 13.887667 4.3010926 14.029625 4.4896331 14.328125 4.6484375 C 14.510746 4.7455555 14.652037 4.773556 14.964844 4.7753906 C 15.669407 4.7794806 15.954395 4.5407249 16.345703 3.6152344 C 16.516114 3.2121907 16.643991 3.0381697 16.863281 3.0449219 z M 14.919922 7.0585938 C 14.419869 7.0794165 13.992188 7.4984181 13.992188 8.0917969 C 13.992188 8.9724498 14.804616 9.4662225 15.488281 9 C 15.782962 8.7990812 15.917295 8.5107985 15.917969 8.0761719 C 15.918533 7.6534211 15.753881 7.3521207 15.429688 7.1796875 C 15.260175 7.0895244 15.086606 7.0516528 14.919922 7.0585938 z " />
<g
   id="g1011"
   transform="translate(-234.8223,-227.59676)">
</g>
<g
   id="g1013"
   transform="translate(-234.8223,-227.59676)">
</g>
<g
   id="g1015"
   transform="translate(-234.8223,-227.59676)">
</g>
<g
   id="g1017"
   transform="translate(-234.8223,-227.59676)">
</g>
<g
   id="g1019"
   transform="translate(-234.8223,-227.59676)">
</g>
<g
   id="g1021"
   transform="translate(-234.8223,-227.59676)">
</g>
<g
   id="g1023"
   transform="translate(-234.8223,-227.59676)">
</g>
<g
   id="g1025"
   transform="translate(-234.8223,-227.59676)">
</g>
<g
   id="g1027"
   transform="translate(-234.8223,-227.59676)">
</g>
<g
   id="g1029"
   transform="translate(-234.8223,-227.59676)">
</g>
<g
   id="g1031"
   transform="translate(-234.8223,-227.59676)">
</g>
<g
   id="g1033"
   transform="translate(-234.8223,-227.59676)">
</g>
<g
   id="g1035"
   transform="translate(-234.8223,-227.59676)">
</g>
<g
   id="g1037"
   transform="translate(-234.8223,-227.59676)">
</g>
<g
   id="g1039"
   transform="translate(-234.8223,-227.59676)">
</g>
</svg>