<?xml version="1.0" encoding="UTF-8" standalone="no"?>
<!-- Generator: Adobe Illustrator 19.1.0, SVG Export Plug-In . SVG Version: 6.00 Build 0)  -->

<svg
   version="1.1"
   id="Capa_1"
   x="0px"
   y="0px"
   viewBox="0 0 24 24"
   xml:space="preserve"
   sodipodi:docname="head-thinking.svg"
   inkscape:version="1.1 (c68e22c387, 2021-05-23)"
   width="24"
   height="24"
   xmlns:inkscape="http://www.inkscape.org/namespaces/inkscape"
   xmlns:sodipodi="http://sodipodi.sourceforge.net/DTD/sodipodi-0.dtd"
   xmlns="http://www.w3.org/2000/svg"
   xmlns:svg="http://www.w3.org/2000/svg"
   xmlns:rdf="http://www.w3.org/1999/02/22-rdf-syntax-ns#"
   xmlns:cc="http://creativecommons.org/ns#"
   xmlns:dc="http://purl.org/dc/elements/1.1/"><metadata
   id="metadata1046"><rdf:RDF><cc:Work
       rdf:about=""><dc:format>image/svg+xml</dc:format><dc:type
         rdf:resource="http://purl.org/dc/dcmitype/StillImage" /></cc:Work></rdf:RDF></metadata><defs
   id="defs1044">
	

		
		
	</defs><sodipodi:namedview
   pagecolor="#ffffff"
   bordercolor="#666666"
   borderopacity="1"
   objecttolerance="10"
   gridtolerance="10"
   guidetolerance="10"
   inkscape:pageopacity="0"
   inkscape:pageshadow="2"
   inkscape:window-width="1880"
   inkscape:window-height="1019"
   id="namedview1042"
   showgrid="true"
   inkscape:zoom="40.373974"
   inkscape:cx="10.910494"
   inkscape:cy="11.083873"
   inkscape:window-x="0"
   inkscape:window-y="30"
   inkscape:window-maximized="1"
   inkscape:current-layer="Capa_1"
   fit-margin-top="0"
   fit-margin-left="0"
   fit-margin-right="0"
   fit-margin-bottom="0"
   inkscape:pagecheckerboard="0"
   width="31px"><inkscape:grid
     type="xygrid"
     id="grid87" /></sodipodi:namedview>
<path
   id="path1062"
   style="fill:#ededed;fill-opacity:1;stroke:#000000;stroke-width:0.623;stroke-miterlimit:4;stroke-dasharray:none;stroke-opacity:1"
   d="m 13.326649,0.9918143 c -1.510384,0 -2.935424,0.2886214 -4.2126266,0.8017802 -3.370541,1.3279111 -5.7027527,4.2215774 -5.7027527,7.5841182 v 1.1216893 0.269045 l -2.008314,3.259323 c -0.50876094,0.823754 -0.025805,1.495139 1.0659099,1.495139 h 0.9424041 v 0.0174 1.417503 1.661117 c 0,0.9678 0.9333393,1.76017 2.072752,1.760169 l 2.8460063,-0.360063 0.00537,2.417388 v 0.0174 c 0.015899,0.310597 0.3232189,0.513134 0.7047895,0.459118 L 19.29387,21.373639 C 19.680739,21.31511 20,20.995981 20,20.66288 v -0.382821 -0.31054 -4.429199 c 1.966156,-1.53047 3.195046,-3.732213 3.195046,-6.1719675 -0.0052,-4.6274324 -4.420412,-8.37652851 -9.868394,-8.37652851 z" />
<g
   id="g1011"
   transform="translate(-234.8223,-227.59676)">
</g>
<g
   id="g1013"
   transform="translate(-234.8223,-227.59676)">
</g>
<g
   id="g1015"
   transform="translate(-234.8223,-227.59676)">
</g>
<g
   id="g1017"
   transform="translate(-234.8223,-227.59676)">
</g>
<g
   id="g1019"
   transform="translate(-234.8223,-227.59676)">
</g>
<g
   id="g1021"
   transform="translate(-234.8223,-227.59676)">
</g>
<g
   id="g1023"
   transform="translate(-234.8223,-227.59676)">
</g>
<g
   id="g1025"
   transform="translate(-234.8223,-227.59676)">
</g>
<g
   id="g1027"
   transform="translate(-234.8223,-227.59676)">
</g>
<g
   id="g1029"
   transform="translate(-234.8223,-227.59676)">
</g>
<g
   id="g1031"
   transform="translate(-234.8223,-227.59676)">
</g>
<g
   id="g1033"
   transform="translate(-234.8223,-227.59676)">
</g>
<g
   id="g1035"
   transform="translate(-234.8223,-227.59676)">
</g>
<g
   id="g1037"
   transform="translate(-234.8223,-227.59676)">
</g>
<g
   id="g1039"
   transform="translate(-234.8223,-227.59676)">
</g>
<path
   style="fill:#080808;fill-opacity:1;stroke-width:0.0524633"
   d="m 12.60155,12.921884 c -0.559547,-0.289089 -0.774001,-0.581932 -0.668909,-0.913342 0.02997,-0.09427 0.13146,-0.286818 0.225542,-0.427886 0.462244,-0.692573 0.543966,-1.143948 0.307938,-1.7009422 C 12.279081,9.4381487 12.105973,9.2239632 11.805751,9.0625749 11.540733,8.9201243 11.513093,8.9166024 10.931824,8.9509386 10.455498,8.9790876 10.302465,8.9698706 10.190481,8.9062496 10.009508,8.803412 9.983141,8.724096 9.950781,8.1847386 9.920069,7.6686476 9.9844833,7.3910969 10.172578,7.2282347 c 0.118576,-0.1024251 0.175356,-0.1080707 0.760295,-0.075553 0.5764,0.032015 0.649658,0.025184 0.831755,-0.077941 0.452356,-0.2563988 0.831679,-0.8945118 0.835874,-1.4062976 0,-0.3197891 -0.08502,-0.5442384 -0.443592,-1.1367214 -0.121723,-0.2011512 -0.233931,-0.4511306 -0.249361,-0.5555151 -0.02547,-0.1719315 -0.0075,-0.2119563 0.204792,-0.4255576 0.422319,-0.4277119 1.006508,-0.6286722 1.202238,-0.4135806 0.04493,0.049059 0.179849,0.3049577 0.300373,0.5685822 0.272433,0.5960145 0.414978,0.7844559 0.713478,0.9432603 0.182621,0.097118 0.324193,0.1253974 0.637,0.127232 0.704563,0.00409 0.988831,-0.2348269 1.380139,-1.1603174 0.272658,-0.6448698 0.437751,-0.7041111 1.039694,-0.3732115 0.683142,0.3755077 0.756774,0.6439154 0.359848,1.3120104 -0.334755,0.5634384 -0.411458,0.7735097 -0.414604,1.1354301 -0.0075,0.5746239 0.464266,1.2927183 0.937372,1.4346747 0.129212,0.038771 0.413405,0.048063 0.78299,0.025681 0.535278,-0.032506 0.590109,-0.026588 0.709884,0.076871 0.24217,0.2093213 0.304791,1.0738266 0.108013,1.4918614 -0.109661,0.233132 -0.242843,0.2668097 -0.909581,0.2299708 -0.514753,-0.028395 -0.619397,-0.019259 -0.789508,0.069468 -0.472731,0.2464732 -0.83505,0.8747097 -0.83505,1.4478436 0,0.348357 0.09933,0.616541 0.391907,1.058057 0.236628,0.356964 0.328612,0.617158 0.273406,0.773204 -0.109362,0.309419 -0.767261,0.758778 -1.110853,0.758778 -0.250636,0 -0.341571,-0.101422 -0.593779,-0.662747 -0.280823,-0.624705 -0.382094,-0.761805 -0.67243,-0.910372 -0.34966,-0.178885 -0.995948,-0.186752 -1.316919,-0.01605 -0.263819,0.140352 -0.390635,0.316926 -0.732804,1.020172 l -0.263445,0.541489 -0.222247,0.01456 c -0.153929,0.01004 -0.303516,-0.02741 -0.485913,-0.12162 z M 15.488196,9 C 15.782877,8.7990812 15.917034,8.5102054 15.917708,8.0755788 15.918272,7.652828 15.754413,7.3513098 15.43022,7.1788766 14.752172,6.8182242 13.991278,7.3013772 13.991278,8.0925489 c 0,0.8806529 0.813253,1.3736736 1.496918,0.9074511 z"
   id="path52"
   inkscape:connector-curvature="0" /><path
   style="fill:#ffffff;fill-opacity:0.47451;stroke-width:0.246028"
   d="m 50.723657,21.826246 c -0.826181,-0.572793 -0.874881,-1.185039 -0.16423,-2.064679 0.788739,-0.9763 0.924493,-1.957201 0.410037,-2.962742 -0.597468,-1.167796 -1.276991,-1.50807 -3.294841,-1.649906 l -1.703391,-0.119737 -0.0807,-1.115087 c -0.110264,-1.52343 0.193375,-1.772127 2.163594,-1.772127 1.351997,0 1.71602,-0.08748 2.162677,-0.519698 1.355522,-1.311719 1.423529,-2.1002419 0.337716,-3.9157983 L 49.766686,6.3891706 50.358531,5.8942237 c 0.570639,-0.4772129 1.546597,-0.912539 2.045822,-0.912539 0.132322,0 0.535216,0.5124629 0.895321,1.1388064 0.831587,1.4464103 1.515661,1.8638953 3.054099,1.8638953 1.074017,0 1.324998,-0.1005379 2.038173,-0.8164567 0.447331,-0.4490514 0.813328,-0.9526403 0.813328,-1.1190869 0,-0.1664464 0.231137,-0.4869961 0.513639,-0.7123325 0.49244,-0.3927933 0.554632,-0.3910102 1.506847,0.043201 1.251845,0.570844 1.342654,1.0852431 0.461996,2.6170046 -0.816299,1.419822 -0.733675,2.3597721 0.302873,3.4455261 0.613279,0.642393 0.803061,0.69973 2.316027,0.69973 1.994624,0 2.296525,0.244745 2.18598,1.772127 l -0.0807,1.115087 -1.748464,0.115491 c -2.03559,0.134453 -2.918965,0.685233 -3.408427,2.125141 -0.275139,0.809407 -0.230132,1.001693 0.543852,2.323602 l 0.843814,1.441172 -0.80564,0.635187 c -1.263056,0.995825 -1.917079,0.854704 -2.859424,-0.61699 -0.857472,-1.339143 -1.325069,-1.580506 -3.022562,-1.560168 -1.151373,0.0138 -1.902479,0.566513 -2.830519,2.082909 -0.533984,0.87252 -1.377048,0.960557 -2.400904,0.250717 z m 6.823171,-6.541568 c 0.980136,-0.74308 1.041038,-2.276618 0.116608,-2.936386 -0.831776,-0.593642 -1.949349,-0.549828 -2.820435,0.110575 -0.987787,0.748881 -0.974319,2.092198 0.0286,2.85255 0.891676,0.676016 1.759721,0.667339 2.675224,-0.02673 z"
   id="path1126"
   inkscape:connector-curvature="0" /></svg>
