<?xml version="1.0" encoding="UTF-8" standalone="no"?>
<!-- Created with Inkscape (http://www.inkscape.org/) -->

<svg
   xmlns:dc="http://purl.org/dc/elements/1.1/"
   xmlns:cc="http://creativecommons.org/ns#"
   xmlns:rdf="http://www.w3.org/1999/02/22-rdf-syntax-ns#"
   xmlns:svg="http://www.w3.org/2000/svg"
   xmlns="http://www.w3.org/2000/svg"
   xmlns:xlink="http://www.w3.org/1999/xlink"
   xmlns:sodipodi="http://sodipodi.sourceforge.net/DTD/sodipodi-0.dtd"
   xmlns:inkscape="http://www.inkscape.org/namespaces/inkscape"
   sodipodi:docname="gnonograms-elementary.svg"
   inkscape:version="0.91 r13725"
   version="1.1"
   id="svg2"
   height="128.00479"
   width="128.03067"
   inkscape:export-filename="/media/Shared/shared_data/Vala/Gnonograms/gnonograms-common-data/icons/gnonograms3-32.xpm.png"
   inkscape:export-xdpi="11.25"
   inkscape:export-ydpi="11.25">
  <sodipodi:namedview
     id="base"
     pagecolor="#ffffff"
     bordercolor="#666666"
     borderopacity="1.0"
     inkscape:pageopacity="0.0"
     inkscape:pageshadow="2"
     inkscape:zoom="2.2788093"
     inkscape:cx="22.981236"
     inkscape:cy="67.214481"
     inkscape:document-units="px"
     inkscape:current-layer="layer1"
     showgrid="false"
     inkscape:window-width="1920"
     inkscape:window-height="1017"
     inkscape:window-x="0"
     inkscape:window-y="30"
     inkscape:window-maximized="1"
     fit-margin-top="0"
     fit-margin-left="0"
     fit-margin-right="0"
     fit-margin-bottom="0" />
  <defs
     id="defs4">
    <inkscape:path-effect
       is_visible="true"
       id="path-effect2852"
       effect="spiro" />
    <linearGradient
       id="linearGradient10390">
      <stop
         style="stop-color:#180297;stop-opacity:0.95384616;"
         offset="0"
         id="stop10392" />
      <stop
         style="stop-color:#fdfbff;stop-opacity:0.99230766;"
         offset="1"
         id="stop10394" />
    </linearGradient>
    <filter
       id="filter8348"
       inkscape:label="Specular light"
       inkscape:menu="ABCs"
       inkscape:menu-tooltip="Basic specular bevel to use for building textures"
       style="color-interpolation-filters:sRGB">
      <feGaussianBlur
         id="feGaussianBlur8350"
         result="result0"
         in="SourceAlpha"
         stdDeviation="6" />
      <feSpecularLighting
         id="feSpecularLighting8352"
         specularExponent="25"
         specularConstant="1"
         surfaceScale="10"
         lighting-color="#ffffff"
         result="result1"
         in="result0">
        <feDistantLight
           id="feDistantLight8354"
           azimuth="235"
           elevation="45" />
      </feSpecularLighting>
      <feComposite
         id="feComposite8356"
         in2="result1"
         k3="1"
         k2="1"
         operator="arithmetic"
         result="result4"
         in="SourceGraphic"
         k1="0"
         k4="0" />
      <feComposite
         id="feComposite8358"
         in2="SourceAlpha"
         operator="in"
         result="result2"
         in="result4" />
    </filter>
    <linearGradient
       inkscape:collect="always"
       xlink:href="#linearGradient10390"
       id="linearGradient3892"
       gradientUnits="userSpaceOnUse"
       gradientTransform="matrix(0.16507368,0,0,0.21090175,20.772903,774.90402)"
       spreadMethod="pad"
       x1="214.44977"
       y1="1019.2225"
       x2="842.30292"
       y2="836.70795" />
  </defs>
  <metadata
     id="metadata7">
    <rdf:RDF>
      <cc:Work
         rdf:about="">
        <dc:format>image/svg+xml</dc:format>
        <dc:type
           rdf:resource="http://purl.org/dc/dcmitype/StillImage" />
        <dc:title></dc:title>
      </cc:Work>
    </rdf:RDF>
  </metadata>
  <g
     id="layer1"
     inkscape:groupmode="layer"
     inkscape:label="Layer 1"
     transform="translate(-16.250378,-868.75503)">
    <path
       sodipodi:nodetypes="saacsscssaaccaccssccascsssscss"
       inkscape:original-d="m 100.37515,996.27798 c 6.91259,2.05705 9.56698,-13.92283 15.7246,-18.50621 1.73482,-1.29135 3.75723,-2.79471 5.73494,-2.35255 3.6255,0.81056 14.08922,13.7398 8.74217,8.61757 0,0 -11.7173,-7.41666 -8.85081,-0.59146 2.79368,6.65167 23.41646,32.76267 10.65139,10.75062 -3.35898,-5.79218 0.52041,-18.44515 0.52041,-18.44515 0,0 -3.62135,-1.56217 -5.90133,-1.64612 -33.063213,-1.21725 -7.88321,1.51116 -14.16051,-6.33807 -7.32268,-9.15636 -12.45059,-10.07238 -13.925416,-18.39112 -3.054068,-17.22648 0.672941,-42.70966 13.177266,-50.24292 2.09561,-1.26251 -1.70023,-11.41535 6.48981,3.18002 2.86668,5.41201 6.72575,55.14925 7.61308,39.88538 7.92928,-1.41816 16.98704,-41.48913 8.50666,-58.94483 -5.14231,-10.58474 -25.1679,-14.3086 -29.47641,-14.31283 -19.796122,-0.70858 -28.872016,-0.23482 -42.535677,15.54431 -10.439701,12.00699 -12.411961,17.11091 -17.78874,14.05752 -93.291659,-52.97885 -34.865029,-7.48916 -21.68119,20.07819 2.635755,5.51136 -6.833465,6.3704 -6.833465,6.3704 0,0 -2.206984,41.96311 0.534641,63.63814 1.576554,0.65177 5.36749,-6.42487 8.301632,-9.3353 6.612139,-6.55889 12.738558,-17.20645 20.887397,-18.23894 270.078102,-34.22024 19.067782,13.80556 21.828903,13.16957 1.923443,0.14781 -8.232925,-7.99442 -7.952519,-5.0062 0.280403,2.98818 -4.996492,21.26155 -2.58147,21.39736 3.444851,0.19372 -165.365922,-24.69777 17.206348,-17.72308 32.94162,1.25847 10.52486,-2.52539 19.702389,-6.67465 9.177531,-4.14924 9.783881,16.04573 11.695221,13.08443 15.50411,4.39656 -9.186498,2.30034 -14.720074,0.34672 -7.963144,-2.8115 4.70706,15.32461 9.090754,16.6292 z"
       inkscape:path-effect="#path-effect2852"
       id="path2848"
       d="m 100.37515,996.27798 c 1.98774,-0.5697 3.73803,-1.80786 5.15861,-3.31041 1.42058,-1.50254 2.53476,-3.26655 3.54919,-5.06839 2.02886,-3.60368 3.79622,-7.53306 7.0168,-10.12741 1.63553,-1.3175 3.6379,-2.23762 5.73494,-2.35255 2.29972,-0.12603 4.6369,0.75832 6.27713,2.37518 1.64023,1.61685 2.55805,3.9411 2.46504,6.24239 -1.03402,-1.3047 -2.63336,-2.14481 -4.29442,-2.25582 -1.66106,-0.111 -3.35796,0.50884 -4.55639,1.66436 -1.31243,1.26544 -1.99378,3.13484 -1.88446,4.95469 0.10932,1.81986 0.98571,3.56666 2.32418,4.80452 1.33848,1.23786 3.11671,1.96982 4.93385,2.11755 1.81713,0.14772 3.66489,-0.27629 5.27782,-1.12614 1.65156,-0.87021 3.06569,-2.18589 4.05261,-3.77047 0.98692,-1.58459 1.54409,-3.434 1.59674,-5.30006 0.0526,-1.86605 -0.39936,-3.74394 -1.29537,-5.38165 -0.896,-1.63771 -2.2337,-3.03103 -3.83357,-3.99297 -1.9776,-0.51011 -3.94522,-1.05896 -5.90133,-1.64612 -4.97754,-1.4941 -9.96035,-3.27754 -14.16051,-6.33807 -6.26984,-4.56864 -10.25334,-11.55743 -13.925416,-18.39112 -2.617065,-4.87032 -5.183024,-9.79745 -6.9725,-15.02879 -1.789476,-5.23133 -2.786193,-10.81251 -2.177011,-16.30777 0.609183,-5.49527 2.925466,-10.90561 6.993894,-14.64954 2.034214,-1.87196 4.483333,-3.30581 7.138653,-4.07494 2.65531,-0.76913 5.51511,-0.86349 8.19423,-0.18188 2.34822,0.59743 4.51855,1.77106 6.48981,3.18002 6.07646,4.34316 10.39042,11.08213 11.79079,18.41871 1.40036,7.33657 -0.12817,15.19072 -4.17771,21.46667 9.39685,-6.14109 15.96414,-16.44048 17.56755,-27.55096 1.60342,-11.11049 -1.78382,-22.84647 -9.06089,-31.39387 -7.28081,-8.55179 -18.259,-13.75352 -29.47641,-14.31283 -7.681962,-0.38303 -15.374899,1.31009 -22.506621,4.19068 -7.131722,2.88059 -13.740038,6.92559 -20.029056,11.35363 -6.182265,4.35287 -12.087846,9.09086 -17.78874,14.05752 -7.427392,6.4708 -14.506746,13.32803 -21.68119,20.07819 -2.268047,2.13392 -4.545901,4.25742 -6.833465,6.3704 l 0.534641,63.63814 c 2.929305,-2.96242 5.701684,-6.07999 8.301632,-9.3353 2.943839,-3.68588 5.677296,-7.5602 8.991824,-10.91665 3.314528,-3.35646 7.309653,-6.2172 11.895573,-7.32229 4.580512,-1.10379 9.584239,-0.33121 13.618527,2.10271 4.034287,2.43392 7.050948,6.50011 8.210376,11.06686 -1.864352,-2.61699 -4.786694,-4.45664 -7.952519,-5.0062 -3.054227,-0.53019 -6.31466,0.14907 -8.862408,1.91497 -2.547748,1.76589 -4.338079,4.61044 -4.757249,7.68187 -0.419171,3.07144 0.560954,6.32028 2.661522,8.59998 2.100568,2.2797 5.29383,3.5254 8.376665,3.20054 2.117544,-0.22314 4.123839,-1.14598 5.824736,-2.42689 1.700896,-1.28092 3.113526,-2.9102 4.347772,-4.64525 2.468493,-3.47012 4.275267,-7.40665 7.03384,-10.65094 2.373553,-2.79148 5.441991,-5.01537 8.894,-6.24408 3.45201,-1.22871 7.285381,-1.4378 10.808389,-0.43057 2.966428,0.8481 5.683149,2.55111 7.739241,4.85143 2.05609,2.30032 3.44476,5.19036 3.95598,8.233 -1.99199,-1.84446 -4.7163,-2.87521 -7.430338,-2.81128 -2.714034,0.0639 -5.386794,1.2218 -7.289736,3.158 -1.503563,1.52984 -2.525314,3.53133 -2.858516,5.65032 -0.333201,2.11898 0.02775,4.34505 1.034849,6.23895 1.007098,1.89391 2.65798,3.44225 4.622275,4.30403 1.964294,0.86179 4.230144,1.02689 6.292146,0.4359 z"
       style="opacity:1;fill:url(#linearGradient3892);fill-opacity:1;fill-rule:nonzero;stroke:#000000;stroke-width:0.2631101;stroke-linecap:round;stroke-linejoin:bevel;stroke-miterlimit:4;stroke-dasharray:none;stroke-dashoffset:0;stroke-opacity:1"
       inkscape:connector-curvature="0" />
  </g>
</svg>
