<?xml version="1.0" encoding="UTF-8" standalone="no"?>
<!-- Created with Inkscape (http://www.inkscape.org/) -->

<svg
   xmlns:dc="http://purl.org/dc/elements/1.1/"
   xmlns:cc="http://creativecommons.org/ns#"
   xmlns:rdf="http://www.w3.org/1999/02/22-rdf-syntax-ns#"
   xmlns:svg="http://www.w3.org/2000/svg"
   xmlns="http://www.w3.org/2000/svg"
   xmlns:xlink="http://www.w3.org/1999/xlink"
   xmlns:sodipodi="http://sodipodi.sourceforge.net/DTD/sodipodi-0.dtd"
   xmlns:inkscape="http://www.inkscape.org/namespaces/inkscape"
   sodipodi:docname="gnonograms-elementary.svg"
   inkscape:version="0.91 r13725"
   version="1.1"
   id="svg2"
   height="31.943918"
   width="32.007664"
   inkscape:export-filename="/media/Shared/shared_data/Vala/Gnonograms/gnonograms-common-data/icons/gnonograms3-32.xpm.png"
   inkscape:export-xdpi="11.25"
   inkscape:export-ydpi="11.25">
  <sodipodi:namedview
     id="base"
     pagecolor="#ffffff"
     bordercolor="#666666"
     borderopacity="1.0"
     inkscape:pageopacity="0.0"
     inkscape:pageshadow="2"
     inkscape:zoom="2.2788093"
     inkscape:cx="-130.11751"
     inkscape:cy="19.154458"
     inkscape:document-units="px"
     inkscape:current-layer="layer1"
     showgrid="false"
     inkscape:window-width="1920"
     inkscape:window-height="1017"
     inkscape:window-x="0"
     inkscape:window-y="30"
     inkscape:window-maximized="1"
     fit-margin-top="0"
     fit-margin-left="0"
     fit-margin-right="0"
     fit-margin-bottom="0" />
  <defs
     id="defs4">
    <inkscape:path-effect
       is_visible="true"
       id="path-effect2852"
       effect="spiro" />
    <linearGradient
       id="linearGradient10390">
      <stop
         style="stop-color:#180297;stop-opacity:0.95384616;"
         offset="0"
         id="stop10392" />
      <stop
         style="stop-color:#fdfbff;stop-opacity:0.99230766;"
         offset="1"
         id="stop10394" />
    </linearGradient>
    <filter
       id="filter8348"
       inkscape:label="Specular light"
       inkscape:menu="ABCs"
       inkscape:menu-tooltip="Basic specular bevel to use for building textures"
       style="color-interpolation-filters:sRGB">
      <feGaussianBlur
         id="feGaussianBlur8350"
         result="result0"
         in="SourceAlpha"
         stdDeviation="6" />
      <feSpecularLighting
         id="feSpecularLighting8352"
         specularExponent="25"
         specularConstant="1"
         surfaceScale="10"
         lighting-color="#ffffff"
         result="result1"
         in="result0">
        <feDistantLight
           id="feDistantLight8354"
           azimuth="235"
           elevation="45" />
      </feSpecularLighting>
      <feComposite
         id="feComposite8356"
         in2="result1"
         k3="1"
         k2="1"
         operator="arithmetic"
         result="result4"
         in="SourceGraphic"
         k1="0"
         k4="0" />
      <feComposite
         id="feComposite8358"
         in2="SourceAlpha"
         operator="in"
         result="result2"
         in="result4" />
    </filter>
    <linearGradient
       inkscape:collect="always"
       xlink:href="#linearGradient10390"
       id="linearGradient3892"
       gradientUnits="userSpaceOnUse"
       gradientTransform="matrix(0.04126842,0,0,0.05272544,65.381009,893.29317)"
       spreadMethod="pad"
       x1="214.44977"
       y1="1019.2225"
       x2="842.30292"
       y2="836.70795" />
  </defs>
  <metadata
     id="metadata7">
    <rdf:RDF>
      <cc:Work
         rdf:about="">
        <dc:format>image/svg+xml</dc:format>
        <dc:type
           rdf:resource="http://purl.org/dc/dcmitype/StillImage" />
        <dc:title></dc:title>
      </cc:Work>
    </rdf:RDF>
  </metadata>
  <g
     id="layer1"
     inkscape:groupmode="layer"
     inkscape:label="Layer 1"
     transform="translate(-64.250378,-916.75588)">
    <path
       sodipodi:nodetypes="saacsscssaaccaccssccascsssscss"
       inkscape:original-d="m 85.28157,948.63666 c 1.728149,0.51426 2.391746,-3.48071 3.931151,-4.62655 0.433705,-0.32284 0.939307,-0.69868 1.433736,-0.58814 0.906375,0.20264 3.522304,3.43495 2.185543,2.15439 0,0 -2.929326,-1.85416 -2.212703,-0.14786 0.69842,1.66291 5.854115,8.19067 2.662847,2.68765 -0.839746,-1.44804 0.130102,-4.61129 0.130102,-4.61129 0,0 -0.905336,-0.39054 -1.475333,-0.41153 -8.265802,-0.30431 -1.970801,0.37779 -3.540126,-1.58451 -1.830671,-2.28909 -3.112648,-2.5181 -3.481355,-4.59779 -0.763516,-4.30661 0.168236,-10.67741 3.294317,-12.56072 0.523904,-0.31563 -0.425058,-2.85384 1.622453,0.795 0.71667,1.353 1.681438,13.78731 1.903269,9.97135 1.982322,-0.35454 4.24676,-10.37229 2.126664,-14.73621 -1.285577,-2.64619 -6.291973,-3.57715 -7.369102,-3.57821 -4.949029,-0.17714 -7.218003,-0.0587 -10.633918,3.88608 -2.609925,3.00175 -3.10299,4.27773 -4.447185,3.51438 -23.322915,-13.24471 -8.716257,-1.87229 -5.420298,5.01955 0.658939,1.37784 -1.708366,1.5926 -1.708366,1.5926 0,0 -0.551746,10.49077 0.13366,15.90953 0.394139,0.16294 1.341873,-1.60622 2.075408,-2.33382 1.653035,-1.63973 3.18464,-4.30162 5.22185,-4.55974 67.519526,-8.55506 4.766945,3.45139 5.457225,3.29239 0.480861,0.037 -2.058231,-1.9986 -1.98813,-1.25155 0.0701,0.74705 -1.249122,5.31539 -0.645367,5.34934 0.861213,0.0484 -41.341481,-6.17444 4.301587,-4.43077 8.235406,0.31462 2.631215,-0.63134 4.925597,-1.66866 2.294382,-1.03731 2.445971,4.01143 2.923806,3.27111 3.876027,1.09914 -2.296625,0.57508 -3.680019,0.0867 -1.990786,-0.70288 1.176765,3.83115 2.272687,4.1573 z"
       inkscape:path-effect="#path-effect2852"
       id="path2848"
       d="m 85.28157,948.63666 c 0.81494,-1.88501 2.202449,-3.51796 3.931151,-4.62655 0.438949,-0.28149 0.914994,-0.53503 1.433736,-0.58814 0.580996,-0.0595 1.184133,0.15257 1.60006,0.56257 0.415928,0.41 0.636623,1.01003 0.585483,1.59182 -0.258507,-0.32618 -0.65834,-0.5362 -1.073607,-0.56395 -0.415266,-0.0278 -0.839489,0.12721 -1.139096,0.41609 -0.328106,0.31636 -0.498443,0.78371 -0.471112,1.23867 0.02733,0.45496 0.24643,0.89166 0.581048,1.20113 0.334619,0.30946 0.779175,0.49245 1.233458,0.52938 0.454283,0.0369 0.91622,-0.0691 1.319453,-0.28153 0.412891,-0.21755 0.766424,-0.54647 1.013155,-0.94262 0.24673,-0.39615 0.386023,-0.8585 0.399185,-1.32501 0.01316,-0.46652 -0.09984,-0.93599 -0.323842,-1.34542 -0.224002,-0.40942 -0.558428,-0.75775 -0.958396,-0.99824 -0.494401,-0.12753 -0.986305,-0.26474 -1.475333,-0.41153 -1.244383,-0.37352 -2.490086,-0.81938 -3.540126,-1.58451 -1.567465,-1.14216 -2.563337,-2.88936 -3.481355,-4.59779 -0.654263,-1.21758 -1.29575,-2.44936 -1.743116,-3.75719 -0.447367,-1.30783 -0.696545,-2.70313 -0.544249,-4.07694 0.152296,-1.37382 0.731365,-2.7264 1.748469,-3.66238 0.508552,-0.46799 1.120831,-0.82645 1.784658,-1.01874 0.663828,-0.19228 1.378776,-0.21587 2.048555,-0.0455 0.587054,0.14935 1.129638,0.44276 1.622453,0.795 1.519119,1.08579 2.597615,2.77053 2.947705,4.60468 0.35009,1.83414 -0.03204,3.79768 -1.044436,5.36667 2.349211,-1.53527 3.991032,-4.11012 4.391886,-6.88774 0.400854,-2.77762 -0.445955,-5.71162 -2.265222,-7.84847 -1.820201,-2.13795 -4.564748,-3.43838 -7.369102,-3.57821 -1.920491,-0.0958 -3.843725,0.32752 -5.626655,1.04767 -1.78293,0.72015 -3.435009,1.7314 -5.007263,2.83841 -1.545566,1.08822 -3.021962,2.27271 -4.447185,3.51438 -1.856848,1.6177 -3.626687,3.33201 -5.420298,5.01955 -0.567012,0.53348 -1.136475,1.06435 -1.708366,1.5926 l 0.13366,15.90953 c 0.732327,-0.7406 1.425421,-1.51999 2.075408,-2.33382 0.735961,-0.92147 1.419325,-1.89005 2.247957,-2.72917 0.828631,-0.83911 1.827412,-1.5543 2.973893,-1.83057 1.145128,-0.27595 2.396059,-0.0828 3.404631,0.52568 1.008572,0.60848 1.762737,1.62502 2.052594,2.76671 -0.466088,-0.65425 -1.196674,-1.11416 -1.98813,-1.25155 -0.763557,-0.13255 -1.578665,0.0373 -2.215602,0.47874 -0.636937,0.44148 -1.08452,1.15261 -1.189312,1.92047 -0.104793,0.76786 0.140238,1.58007 0.665381,2.15 0.525142,0.56992 1.323457,0.88134 2.094166,0.80013 0.529386,-0.0558 1.03096,-0.2865 1.456184,-0.60672 0.425224,-0.32023 0.778381,-0.72755 1.086943,-1.16132 0.617123,-0.86752 1.068817,-1.85166 1.75846,-2.66273 0.593388,-0.69787 1.360498,-1.25384 2.2235,-1.56102 0.863003,-0.30718 1.821345,-0.35945 2.702097,-0.10764 0.741607,0.21203 1.420788,0.63778 1.93481,1.21286 0.514022,0.57508 0.861192,1.29759 0.988996,2.05825 -0.480961,-0.49218 -1.170895,-0.77311 -1.858863,-0.7569 -0.687968,0.0162 -1.363907,0.32932 -1.821156,0.8436 -0.341913,0.38456 -0.561502,0.87628 -0.619647,1.38757 -0.05814,0.51128 0.04542,1.03975 0.292254,1.49127 0.246832,0.45151 0.635781,0.82397 1.097557,1.05103 0.461776,0.22706 0.994236,0.30765 1.502523,0.22743 l 0,-2e-5 z"
       style="opacity:1;fill:url(#linearGradient3892);fill-opacity:1;fill-rule:nonzero;stroke:#000000;stroke-width:0.06577753;stroke-linecap:round;stroke-linejoin:bevel;stroke-miterlimit:4;stroke-dasharray:none;stroke-dashoffset:0;stroke-opacity:1"
       inkscape:connector-curvature="0" />
  </g>
</svg>
