<?xml version="1.0" encoding="UTF-8" standalone="no"?>
<!-- Generator: Adobe Illustrator 19.1.0, SVG Export Plug-In . SVG Version: 6.00 Build 0)  -->

<svg
   xmlns:dc="http://purl.org/dc/elements/1.1/"
   xmlns:cc="http://creativecommons.org/ns#"
   xmlns:rdf="http://www.w3.org/1999/02/22-rdf-syntax-ns#"
   xmlns:svg="http://www.w3.org/2000/svg"
   xmlns="http://www.w3.org/2000/svg"
   xmlns:sodipodi="http://sodipodi.sourceforge.net/DTD/sodipodi-0.dtd"
   xmlns:inkscape="http://www.inkscape.org/namespaces/inkscape"
   version="1.1"
   id="Capa_1"
   x="0px"
   y="0px"
   viewBox="0 0 32 32"
   xml:space="preserve"
   sodipodi:docname="head-thinking32.svg"
   inkscape:version="0.92.3 (2405546, 2018-03-11)"
   width="32"
   height="32"><metadata
   id="metadata1046"><rdf:RDF><cc:Work
       rdf:about=""><dc:format>image/svg+xml</dc:format><dc:type
         rdf:resource="http://purl.org/dc/dcmitype/StillImage" /><dc:title></dc:title></cc:Work></rdf:RDF></metadata><defs
   id="defs1044">
	
</defs><sodipodi:namedview
   pagecolor="#ffffff"
   bordercolor="#666666"
   borderopacity="1"
   objecttolerance="10"
   gridtolerance="10"
   guidetolerance="10"
   inkscape:pageopacity="0"
   inkscape:pageshadow="2"
   inkscape:window-width="1227"
   inkscape:window-height="829"
   id="namedview1042"
   showgrid="false"
   inkscape:zoom="5.6568542"
   inkscape:cx="12.45648"
   inkscape:cy="16.447069"
   inkscape:window-x="109"
   inkscape:window-y="42"
   inkscape:window-maximized="0"
   inkscape:current-layer="Capa_1"
   fit-margin-top="0"
   fit-margin-left="0"
   fit-margin-right="0"
   fit-margin-bottom="0" />
<g
   id="g1007"
   transform="matrix(0.07710322,0,0,0.06568232,-2.7821109,0)"
   style="fill:#ededed;fill-opacity:1;stroke:#000000;stroke-opacity:1;stroke-width:6.61851271;stroke-miterlimit:4;stroke-dasharray:none">
		<path
   d="m 264.911,0 c -28.5,0 -55.4,6.4 -79.5,17.8 -63.6,29.5 -107.6,93.8 -107.6,168.5 v 0 24.9 6 l -37.9,72.4 c -9.6,18.3 -0.5,33.2 20.1,33.2 h 17.8 v 0.4 31.5 36.9 c 0,21.5 17.6,39.1 39.1,39.1 l 53.7,-8 0.1,53.7 v 0.4 0 c 0.3,6.9 6.1,11.4 13.3,10.2 l 193.5,-34.2 c 7.3,-1.3 13.3,-8.4 13.3,-15.8 v -8.5 -6.9 -98.4 c 37.1,-34 60.3,-82.9 60.3,-137.1 C 451.011,83.3 367.711,0 264.911,0 Z"
   id="path1062"
   inkscape:connector-curvature="0"
   style="fill:#ededed;fill-opacity:1;stroke:#000000;stroke-opacity:1;stroke-width:6.61851271;stroke-miterlimit:4;stroke-dasharray:none" />
		
	</g>
<g
   id="g1011"
   transform="translate(-234.8223,-227.59676)">
</g>
<g
   id="g1013"
   transform="translate(-234.8223,-227.59676)">
</g>
<g
   id="g1015"
   transform="translate(-234.8223,-227.59676)">
</g>
<g
   id="g1017"
   transform="translate(-234.8223,-227.59676)">
</g>
<g
   id="g1019"
   transform="translate(-234.8223,-227.59676)">
</g>
<g
   id="g1021"
   transform="translate(-234.8223,-227.59676)">
</g>
<g
   id="g1023"
   transform="translate(-234.8223,-227.59676)">
</g>
<g
   id="g1025"
   transform="translate(-234.8223,-227.59676)">
</g>
<g
   id="g1027"
   transform="translate(-234.8223,-227.59676)">
</g>
<g
   id="g1029"
   transform="translate(-234.8223,-227.59676)">
</g>
<g
   id="g1031"
   transform="translate(-234.8223,-227.59676)">
</g>
<g
   id="g1033"
   transform="translate(-234.8223,-227.59676)">
</g>
<g
   id="g1035"
   transform="translate(-234.8223,-227.59676)">
</g>
<g
   id="g1037"
   transform="translate(-234.8223,-227.59676)">
</g>
<g
   id="g1039"
   transform="translate(-234.8223,-227.59676)">
</g>
<path
   style="fill:#080808;fill-opacity:1;stroke-width:0.0784648"
   d="m 17.079455,18.373785 c -0.853295,-0.424042 -1.180334,-0.853588 -1.02007,-1.339706 0.0457,-0.138277 0.200473,-0.420709 0.343946,-0.62763 0.70491,-1.015878 0.829534,-1.677962 0.469597,-2.494971 -0.285232,-0.647695 -0.549215,-0.961866 -1.007047,-1.198593 -0.404145,-0.208949 -0.446295,-0.214115 -1.332717,-0.16375 -0.726386,0.04129 -0.959756,0.02777 -1.130529,-0.06555 -0.275979,-0.150844 -0.316188,-0.267186 -0.365536,-1.058324 -0.04683,-0.757011 0.0514,-1.164127 0.338235,-1.403016 0.180825,-0.150239 0.267412,-0.1585198 1.15943,-0.1108229 0.878995,0.046957 0.990712,0.036943 1.268404,-0.114325 0.689832,-0.3760905 1.268291,-1.3120854 1.274688,-2.062781 0,-0.4690718 -0.129651,-0.798298 -0.676467,-1.6673625 -0.185624,-0.2950511 -0.356739,-0.6617257 -0.38027,-0.8148387 -0.03884,-0.2521923 -0.01142,-0.3109005 0.312303,-0.6242144 0.644027,-0.6273758 1.5349,-0.9221473 1.833383,-0.6066472 0.06853,0.071956 0.274265,0.4473164 0.458061,0.8340058 0.415453,0.8742442 0.632831,1.1506533 1.088036,1.3835902 0.278492,0.1424537 0.494386,0.1839345 0.971408,0.1866257 1.074442,0.00603 1.507944,-0.3444483 2.104679,-1.7019728 0.415795,-0.9459062 0.667558,-1.0328025 1.585506,-0.547433 1.041774,0.5508006 1.154061,0.9445055 0.548759,1.9244785 -0.510493,0.8264617 -0.627463,1.1345976 -0.63226,1.6654682 -0.01142,0.8428677 0.707993,1.8961813 1.429468,2.1044051 0.197045,0.056865 0.630432,0.070496 1.19404,0.037669 0.816285,-0.047682 0.8999,-0.038997 1.082555,0.112756 0.369303,0.307036 0.464799,1.575107 0.164718,2.188287 -0.167231,0.341962 -0.370331,0.391361 -1.387089,0.337325 -0.784986,-0.04165 -0.944564,-0.02825 -1.203979,0.101897 -0.720903,0.361531 -1.273431,1.283039 -1.273431,2.123721 0,0.510976 0.151469,0.904353 0.597649,1.551976 0.360851,0.523601 0.501125,0.905258 0.416938,1.134149 -0.166775,0.453861 -1.170054,1.112988 -1.694024,1.112988 -0.382213,0 -0.520887,-0.148768 -0.905498,-0.972128 -0.428247,-0.916328 -0.582684,-1.117429 -1.025438,-1.335349 -0.533224,-0.262392 -1.518796,-0.273932 -2.00827,-0.02355 -0.402317,0.205871 -0.595707,0.464872 -1.117507,1.496405 l -0.401746,0.794266 -0.33892,0.02136 c -0.23474,0.01473 -0.462855,-0.0402 -0.741005,-0.178393 z m 4.402062,-5.752686 c 0.44938,-0.294711 0.653965,-0.718439 0.654993,-1.355956 8.61e-4,-0.620098 -0.24902,-1.06237 -0.743406,-1.3152975 -1.034006,-0.5290112 -2.19435,0.1796855 -2.19435,1.3401895 0,1.291756 1.24019,2.014927 2.282763,1.331064 z"
   id="path52"
   inkscape:connector-curvature="0" /><path
   style="fill:#ffffff;fill-opacity:0.4745098;stroke-width:0.24602826"
   d="m 50.723657,21.826246 c -0.826181,-0.572793 -0.874881,-1.185039 -0.16423,-2.064679 0.788739,-0.9763 0.924493,-1.957201 0.410037,-2.962742 -0.597468,-1.167796 -1.276991,-1.50807 -3.294841,-1.649906 l -1.703391,-0.119737 -0.0807,-1.115087 c -0.110264,-1.52343 0.193375,-1.772127 2.163594,-1.772127 1.351997,0 1.71602,-0.08748 2.162677,-0.519698 1.355522,-1.311719 1.423529,-2.1002419 0.337716,-3.9157983 L 49.766686,6.3891706 50.358531,5.8942237 c 0.570639,-0.4772129 1.546597,-0.912539 2.045822,-0.912539 0.132322,0 0.535216,0.5124629 0.895321,1.1388064 0.831587,1.4464103 1.515661,1.8638953 3.054099,1.8638953 1.074017,0 1.324998,-0.1005379 2.038173,-0.8164567 0.447331,-0.4490514 0.813328,-0.9526403 0.813328,-1.1190869 0,-0.1664464 0.231137,-0.4869961 0.513639,-0.7123325 0.49244,-0.3927933 0.554632,-0.3910102 1.506847,0.043201 1.251845,0.570844 1.342654,1.0852431 0.461996,2.6170046 -0.816299,1.419822 -0.733675,2.3597721 0.302873,3.4455261 0.613279,0.642393 0.803061,0.69973 2.316027,0.69973 1.994624,0 2.296525,0.244745 2.18598,1.772127 l -0.0807,1.115087 -1.748464,0.115491 c -2.03559,0.134453 -2.918965,0.685233 -3.408427,2.125141 -0.275139,0.809407 -0.230132,1.001693 0.543852,2.323602 l 0.843814,1.441172 -0.80564,0.635187 c -1.263056,0.995825 -1.917079,0.854704 -2.859424,-0.61699 -0.857472,-1.339143 -1.325069,-1.580506 -3.022562,-1.560168 -1.151373,0.0138 -1.902479,0.566513 -2.830519,2.082909 -0.533984,0.87252 -1.377048,0.960557 -2.400904,0.250717 z m 6.823171,-6.541568 c 0.980136,-0.74308 1.041038,-2.276618 0.116608,-2.936386 -0.831776,-0.593642 -1.949349,-0.549828 -2.820435,0.110575 -0.987787,0.748881 -0.974319,2.092198 0.0286,2.85255 0.891676,0.676016 1.759721,0.667339 2.675224,-0.02673 z"
   id="path1126"
   inkscape:connector-curvature="0" /></svg>