<?xml version="1.0" encoding="UTF-8" standalone="no"?>
<!-- Created with Inkscape (http://www.inkscape.org/) -->

<svg
   xmlns:osb="http://www.openswatchbook.org/uri/2009/osb"
   xmlns:dc="http://purl.org/dc/elements/1.1/"
   xmlns:cc="http://creativecommons.org/ns#"
   xmlns:rdf="http://www.w3.org/1999/02/22-rdf-syntax-ns#"
   xmlns:svg="http://www.w3.org/2000/svg"
   xmlns="http://www.w3.org/2000/svg"
   xmlns:xlink="http://www.w3.org/1999/xlink"
   xmlns:sodipodi="http://sodipodi.sourceforge.net/DTD/sodipodi-0.dtd"
   xmlns:inkscape="http://www.inkscape.org/namespaces/inkscape"
   inkscape:export-ydpi="5.625"
   inkscape:export-xdpi="5.625"
   inkscape:export-filename="/media/jeremy/Shared/shared_data/Vala/gnonograms/data/icons/16/application-x-gnonogram-puzzle.svg"
   width="256"
   height="256"
   id="svg2"
   version="1.1"
   inkscape:version="0.91 r13725"
   sodipodi:docname="application-x-gnonogram-puzzle.svg">
  <sodipodi:namedview
     inkscape:snap-nodes="true"
     inkscape:snap-others="false"
     inkscape:snap-page="true"
     inkscape:snap-grids="true"
     inkscape:snap-to-guides="true"
     showguides="false"
     inkscape:object-nodes="false"
     inkscape:snap-global="true"
     fit-margin-bottom="0"
     fit-margin-right="0"
     fit-margin-left="0"
     fit-margin-top="0"
     inkscape:window-maximized="1"
     inkscape:window-y="30"
     inkscape:window-x="0"
     inkscape:window-height="1017"
     inkscape:window-width="1920"
     showgrid="true"
     inkscape:current-layer="layer1"
     inkscape:document-units="px"
     inkscape:cy="158.02496"
     inkscape:cx="114.52196"
     inkscape:zoom="3.6203868"
     inkscape:pageshadow="2"
     inkscape:pageopacity="0.0"
     borderopacity="1.0"
     bordercolor="#666666"
     pagecolor="#ffffff"
     id="base">
    <inkscape:grid
       id="grid4227"
       type="xygrid" />
    <sodipodi:guide
       id="guide5642"
       orientation="0,256"
       position="0,0" />
    <sodipodi:guide
       id="guide5644"
       orientation="-256,0"
       position="256,0" />
    <sodipodi:guide
       id="guide5646"
       orientation="0,-256"
       position="256,256" />
    <sodipodi:guide
       id="guide5648"
       orientation="256,0"
       position="0,256" />
  </sodipodi:namedview>
  <defs
     id="defs4">
    <linearGradient
       osb:paint="solid"
       id="linearGradient7074">
      <stop
         id="stop7076"
         offset="0"
         style="stop-color:#160200;stop-opacity:1;" />
    </linearGradient>
    <inkscape:path-effect
       end_linecap_type="round"
       miter_limit="4"
       linejoin_type="round"
       start_linecap_type="butt"
       interpolator_beta="0.2"
       interpolator_type=""
       sort_points="true"
       offset_points="0,0.61364746 | 35.5,0.61364746"
       is_visible="true"
       id="path-effect4872"
       effect="powerstroke" />
    <inkscape:path-effect
       effect="spiro"
       id="path-effect2852"
       is_visible="true" />
    <linearGradient
       id="linearGradient10390">
      <stop
         id="stop10392"
         offset="0"
         style="stop-color:#180297;stop-opacity:0.95384616;" />
      <stop
         id="stop10394"
         offset="1"
         style="stop-color:#fdfbff;stop-opacity:0.99230766;" />
    </linearGradient>
    <filter
       style="color-interpolation-filters:sRGB"
       inkscape:menu-tooltip="Basic specular bevel to use for building textures"
       inkscape:menu="ABCs"
       inkscape:label="Specular light"
       id="filter8348">
      <feGaussianBlur
         stdDeviation="6"
         in="SourceAlpha"
         result="result0"
         id="feGaussianBlur8350" />
      <feSpecularLighting
         in="result0"
         result="result1"
         lighting-color="#ffffff"
         surfaceScale="10"
         specularConstant="1"
         specularExponent="25"
         id="feSpecularLighting8352">
        <feDistantLight
           elevation="45"
           azimuth="235"
           id="feDistantLight8354" />
      </feSpecularLighting>
      <feComposite
         k4="0"
         k1="0"
         in="SourceGraphic"
         result="result4"
         operator="arithmetic"
         k2="1"
         k3="1"
         in2="result1"
         id="feComposite8356" />
      <feComposite
         in="result4"
         result="result2"
         operator="in"
         in2="SourceAlpha"
         id="feComposite8358" />
    </filter>
    <pattern
       id="pattern4250"
       patternTransform="translate(-280.03216,826.70854)"
       height="209.507"
       width="217.507"
       patternUnits="userSpaceOnUse">
      <rect
         style="opacity:1;fill:#b50000;fill-opacity:1;fill-rule:nonzero;stroke:#160287;stroke-width:1.50699997;stroke-linecap:round;stroke-linejoin:bevel;stroke-miterlimit:4;stroke-dasharray:none;stroke-opacity:0.95294118"
         id="rect4248"
         width="216"
         height="208"
         x="0.75349998"
         y="0.75349998" />
    </pattern>
    <pattern
       inkscape:collect="always"
       xlink:href="#Strips1_1-27"
       id="pattern8073-7"
       patternTransform="matrix(10,0,0,6.09375,-819.12088,-509.95083)" />
    <pattern
       inkscape:isstock="true"
       inkscape:stockid="Stripes 1:1"
       id="Strips1_1-27"
       patternTransform="translate(0,0) scale(10,10)"
       height="1"
       width="2"
       patternUnits="userSpaceOnUse"
       inkscape:collect="always">
      <rect
         id="rect6345-22"
         height="2"
         width="1"
         y="-0.5"
         x="0"
         style="fill:black;stroke:none" />
    </pattern>
    <pattern
       inkscape:collect="always"
       xlink:href="#Strips1_1-27-4"
       id="pattern8073-7-9"
       patternTransform="matrix(10,0,0,6.09375,-819.1209,-373.06193)" />
    <pattern
       inkscape:isstock="true"
       inkscape:stockid="Stripes 1:1"
       id="Strips1_1-27-4"
       patternTransform="translate(0,0) scale(10,10)"
       height="1"
       width="2"
       patternUnits="userSpaceOnUse"
       inkscape:collect="always">
      <rect
         id="rect6345-22-9"
         height="2"
         width="1"
         y="-0.5"
         x="0"
         style="fill:black;stroke:none" />
    </pattern>
    <pattern
       inkscape:collect="always"
       xlink:href="#Strips1_1-27-7"
       id="pattern8073-7-91"
       patternTransform="matrix(10,0,0,6.09375,-819.12089,-412.17304)" />
    <pattern
       inkscape:isstock="true"
       inkscape:stockid="Stripes 1:1"
       id="Strips1_1-27-7"
       patternTransform="translate(0,0) scale(10,10)"
       height="1"
       width="2"
       patternUnits="userSpaceOnUse"
       inkscape:collect="always">
      <rect
         id="rect6345-22-7"
         height="2"
         width="1"
         y="-0.5"
         x="0"
         style="fill:black;stroke:none" />
    </pattern>
    <pattern
       inkscape:collect="always"
       xlink:href="#Strips1_1-27-5"
       id="pattern8073-7-1"
       patternTransform="matrix(10,0,0,6.09375,-819.12089,-451.28415)" />
    <pattern
       inkscape:isstock="true"
       inkscape:stockid="Stripes 1:1"
       id="Strips1_1-27-5"
       patternTransform="translate(0,0) scale(10,10)"
       height="1"
       width="2"
       patternUnits="userSpaceOnUse"
       inkscape:collect="always">
      <rect
         id="rect6345-22-97"
         height="2"
         width="1"
         y="-0.5"
         x="0"
         style="fill:black;stroke:none" />
    </pattern>
    <pattern
       inkscape:collect="always"
       xlink:href="#Strips1_1-27-73"
       id="pattern8073-7-6"
       patternTransform="matrix(10,0,0,6.09375,-819.12089,-490.39526)" />
    <pattern
       inkscape:isstock="true"
       inkscape:stockid="Stripes 1:1"
       id="Strips1_1-27-73"
       patternTransform="translate(0,0) scale(10,10)"
       height="1"
       width="2"
       patternUnits="userSpaceOnUse"
       inkscape:collect="always">
      <rect
         id="rect6345-22-6"
         height="2"
         width="1"
         y="-0.5"
         x="0"
         style="fill:black;stroke:none" />
    </pattern>
    <pattern
       inkscape:collect="always"
       xlink:href="#Strips1_1-27-9"
       id="pattern8073-7-3"
       patternTransform="matrix(10,0,0,6.09375,-819.1209,-353.50637)" />
    <pattern
       inkscape:isstock="true"
       inkscape:stockid="Stripes 1:1"
       id="Strips1_1-27-9"
       patternTransform="translate(0,0) scale(10,10)"
       height="1"
       width="2"
       patternUnits="userSpaceOnUse"
       inkscape:collect="always">
      <rect
         id="rect6345-22-4"
         height="2"
         width="1"
         y="-0.5"
         x="0"
         style="fill:black;stroke:none" />
    </pattern>
    <pattern
       inkscape:collect="always"
       xlink:href="#Strips1_1-27-93"
       id="pattern8073-7-12"
       patternTransform="matrix(10,0,0,6.09375,-819.12088,-392.61749)" />
    <pattern
       inkscape:isstock="true"
       inkscape:stockid="Stripes 1:1"
       id="Strips1_1-27-93"
       patternTransform="translate(0,0) scale(10,10)"
       height="1"
       width="2"
       patternUnits="userSpaceOnUse"
       inkscape:collect="always">
      <rect
         id="rect6345-22-90"
         height="2"
         width="1"
         y="-0.5"
         x="0"
         style="fill:black;stroke:none" />
    </pattern>
    <pattern
       inkscape:collect="always"
       xlink:href="#Strips1_1-27-0"
       id="pattern8073-7-5"
       patternTransform="matrix(10,0,0,6.09375,-819.12089,-431.7286)" />
    <pattern
       inkscape:isstock="true"
       inkscape:stockid="Stripes 1:1"
       id="Strips1_1-27-0"
       patternTransform="translate(0,0) scale(10,10)"
       height="1"
       width="2"
       patternUnits="userSpaceOnUse"
       inkscape:collect="always">
      <rect
         id="rect6345-22-96"
         height="2"
         width="1"
         y="-0.5"
         x="0"
         style="fill:black;stroke:none" />
    </pattern>
    <pattern
       inkscape:collect="always"
       xlink:href="#Strips1_1-27-56"
       id="pattern8073-7-8"
       patternTransform="matrix(10,0,0,6.09375,-819.1209,-470.83971)" />
    <pattern
       inkscape:isstock="true"
       inkscape:stockid="Stripes 1:1"
       id="Strips1_1-27-56"
       patternTransform="translate(0,0) scale(10,10)"
       height="1"
       width="2"
       patternUnits="userSpaceOnUse"
       inkscape:collect="always">
      <rect
         id="rect6345-22-11"
         height="2"
         width="1"
         y="-0.5"
         x="0"
         style="fill:black;stroke:none" />
    </pattern>
    <pattern
       inkscape:collect="always"
       xlink:href="#Strips1_1-27-8"
       id="pattern8073-7-84"
       patternTransform="matrix(10,0,0,6.09375,-819.12089,-333.95082)" />
    <pattern
       inkscape:isstock="true"
       inkscape:stockid="Stripes 1:1"
       id="Strips1_1-27-8"
       patternTransform="translate(0,0) scale(10,10)"
       height="1"
       width="2"
       patternUnits="userSpaceOnUse"
       inkscape:collect="always">
      <rect
         id="rect6345-22-10"
         height="2"
         width="1"
         y="-0.5"
         x="0"
         style="fill:black;stroke:none" />
    </pattern>
    <pattern
       inkscape:collect="always"
       xlink:href="#Strips1_1-27-8-1"
       id="pattern8073-7-84-3"
       patternTransform="matrix(10,0,0,6.09375,33.088529,-1406.6342)" />
    <pattern
       inkscape:isstock="true"
       inkscape:stockid="Stripes 1:1"
       id="Strips1_1-27-8-1"
       patternTransform="translate(0,0) scale(10,10)"
       height="1"
       width="2"
       patternUnits="userSpaceOnUse"
       inkscape:collect="always">
      <rect
         id="rect6345-22-10-7"
         height="2"
         width="1"
         y="-0.5"
         x="0"
         style="fill:black;stroke:none" />
    </pattern>
    <pattern
       inkscape:collect="always"
       xlink:href="#Strips1_1-27-56-9"
       id="pattern8073-7-8-5"
       patternTransform="matrix(10,0,0,6.09375,33.088519,-1543.5231)" />
    <pattern
       inkscape:isstock="true"
       inkscape:stockid="Stripes 1:1"
       id="Strips1_1-27-56-9"
       patternTransform="translate(0,0) scale(10,10)"
       height="1"
       width="2"
       patternUnits="userSpaceOnUse"
       inkscape:collect="always">
      <rect
         id="rect6345-22-11-6"
         height="2"
         width="1"
         y="-0.5"
         x="0"
         style="fill:black;stroke:none" />
    </pattern>
    <pattern
       inkscape:collect="always"
       xlink:href="#Strips1_1-27-0-1"
       id="pattern8073-7-5-2"
       patternTransform="matrix(10,0,0,6.09375,33.088529,-1504.412)" />
    <pattern
       inkscape:isstock="true"
       inkscape:stockid="Stripes 1:1"
       id="Strips1_1-27-0-1"
       patternTransform="translate(0,0) scale(10,10)"
       height="1"
       width="2"
       patternUnits="userSpaceOnUse"
       inkscape:collect="always">
      <rect
         id="rect6345-22-96-7"
         height="2"
         width="1"
         y="-0.5"
         x="0"
         style="fill:black;stroke:none" />
    </pattern>
    <pattern
       inkscape:collect="always"
       xlink:href="#Strips1_1-27-93-5"
       id="pattern8073-7-12-8"
       patternTransform="matrix(10,0,0,6.09375,33.088539,-1465.3009)" />
    <pattern
       inkscape:isstock="true"
       inkscape:stockid="Stripes 1:1"
       id="Strips1_1-27-93-5"
       patternTransform="translate(0,0) scale(10,10)"
       height="1"
       width="2"
       patternUnits="userSpaceOnUse"
       inkscape:collect="always">
      <rect
         id="rect6345-22-90-7"
         height="2"
         width="1"
         y="-0.5"
         x="0"
         style="fill:black;stroke:none" />
    </pattern>
    <pattern
       inkscape:collect="always"
       xlink:href="#Strips1_1-27-9-1"
       id="pattern8073-7-3-4"
       patternTransform="matrix(10,0,0,6.09375,33.088519,-1426.1898)" />
    <pattern
       inkscape:isstock="true"
       inkscape:stockid="Stripes 1:1"
       id="Strips1_1-27-9-1"
       patternTransform="translate(0,0) scale(10,10)"
       height="1"
       width="2"
       patternUnits="userSpaceOnUse"
       inkscape:collect="always">
      <rect
         id="rect6345-22-4-8"
         height="2"
         width="1"
         y="-0.5"
         x="0"
         style="fill:black;stroke:none" />
    </pattern>
    <pattern
       inkscape:collect="always"
       xlink:href="#Strips1_1-27-73-9"
       id="pattern8073-7-6-5"
       patternTransform="matrix(10,0,0,6.09375,33.088529,-1563.0787)" />
    <pattern
       inkscape:isstock="true"
       inkscape:stockid="Stripes 1:1"
       id="Strips1_1-27-73-9"
       patternTransform="translate(0,0) scale(10,10)"
       height="1"
       width="2"
       patternUnits="userSpaceOnUse"
       inkscape:collect="always">
      <rect
         id="rect6345-22-6-7"
         height="2"
         width="1"
         y="-0.5"
         x="0"
         style="fill:black;stroke:none" />
    </pattern>
    <pattern
       inkscape:collect="always"
       xlink:href="#Strips1_1-27-5-3"
       id="pattern8073-7-1-5"
       patternTransform="matrix(10,0,0,6.09375,33.088529,-1523.9676)" />
    <pattern
       inkscape:isstock="true"
       inkscape:stockid="Stripes 1:1"
       id="Strips1_1-27-5-3"
       patternTransform="translate(0,0) scale(10,10)"
       height="1"
       width="2"
       patternUnits="userSpaceOnUse"
       inkscape:collect="always">
      <rect
         id="rect6345-22-97-8"
         height="2"
         width="1"
         y="-0.5"
         x="0"
         style="fill:black;stroke:none" />
    </pattern>
    <pattern
       inkscape:collect="always"
       xlink:href="#Strips1_1-27-7-3"
       id="pattern8073-7-91-8"
       patternTransform="matrix(10,0,0,6.09375,33.088529,-1484.8565)" />
    <pattern
       inkscape:isstock="true"
       inkscape:stockid="Stripes 1:1"
       id="Strips1_1-27-7-3"
       patternTransform="translate(0,0) scale(10,10)"
       height="1"
       width="2"
       patternUnits="userSpaceOnUse"
       inkscape:collect="always">
      <rect
         id="rect6345-22-7-1"
         height="2"
         width="1"
         y="-0.5"
         x="0"
         style="fill:black;stroke:none" />
    </pattern>
    <pattern
       inkscape:collect="always"
       xlink:href="#Strips1_1-27-4-9"
       id="pattern8073-7-9-8"
       patternTransform="matrix(10,0,0,6.09375,33.088519,-1445.7453)" />
    <pattern
       inkscape:isstock="true"
       inkscape:stockid="Stripes 1:1"
       id="Strips1_1-27-4-9"
       patternTransform="translate(0,0) scale(10,10)"
       height="1"
       width="2"
       patternUnits="userSpaceOnUse"
       inkscape:collect="always">
      <rect
         id="rect6345-22-9-6"
         height="2"
         width="1"
         y="-0.5"
         x="0"
         style="fill:black;stroke:none" />
    </pattern>
    <pattern
       inkscape:collect="always"
       xlink:href="#Strips1_1-27-3"
       id="pattern8073-7-4"
       patternTransform="matrix(10,0,0,6.09375,33.088539,-1582.6343)" />
    <pattern
       inkscape:isstock="true"
       inkscape:stockid="Stripes 1:1"
       id="Strips1_1-27-3"
       patternTransform="translate(0,0) scale(10,10)"
       height="1"
       width="2"
       patternUnits="userSpaceOnUse"
       inkscape:collect="always">
      <rect
         id="rect6345-22-3"
         height="2"
         width="1"
         y="-0.5"
         x="0"
         style="fill:black;stroke:none" />
    </pattern>
  </defs>
  <metadata
     id="metadata7">
    <rdf:RDF>
      <cc:Work
         rdf:about="">
        <dc:format>image/svg+xml</dc:format>
        <dc:type
           rdf:resource="http://purl.org/dc/dcmitype/StillImage" />
        <dc:title></dc:title>
      </cc:Work>
    </rdf:RDF>
  </metadata>
  <g
     transform="translate(47.278653,-803.46205)"
     inkscape:label="Layer 1"
     inkscape:groupmode="layer"
     id="layer1">
    <g
       id="g4492"
       style="opacity:1;">
      <g
         transform="translate(317.64563,79.549513)"
         id="g8435"
         style="">
        <g
           inkscape:label="MajorXGridlines"
           id="g7442"
           style="stroke-width:4.06968641;stroke-miterlimit:4;stroke-dasharray:none"
           transform="matrix(0.98485844,0,0,0.98089908,-307.97249,784.9928)">
          <path
             inkscape:connector-curvature="0"
             d="m 100,0 0,200"
             style="fill:none;stroke:#000000;stroke-width:4.06968641;stroke-miterlimit:4;stroke-dasharray:none"
             inkscape:label="MajorXDiv1"
             id="path7444" />
        </g>
        <g
           inkscape:label="MajorYGridlines"
           id="g7446"
           style="stroke-width:4.06968641;stroke-miterlimit:4;stroke-dasharray:none"
           transform="matrix(0.98485844,0,0,0.98089908,-307.97249,784.9928)">
          <path
             inkscape:connector-curvature="0"
             d="m 0,100 200,0"
             style="fill:none;stroke:#000000;stroke-width:4.06968641;stroke-miterlimit:4;stroke-dasharray:none"
             inkscape:label="MajorYDiv1"
             id="path7448" />
        </g>
        <g
           inkscape:label="MinorXGridlines"
           id="g7450"
           style="stroke-width:2.03484321;stroke-miterlimit:4;stroke-dasharray:none"
           transform="matrix(0.98485844,0,0,0.98089908,-306.31521,784.9928)">
          <path
             inkscape:connector-curvature="0"
             d="m 20,0 0,200"
             style="fill:none;stroke:#000000;stroke-width:2.03484321;stroke-miterlimit:4;stroke-dasharray:none"
             inkscape:label="MinorXDiv0:1"
             id="path7452" />
          <path
             inkscape:connector-curvature="0"
             d="m 40,0 0,200"
             style="fill:none;stroke:#000000;stroke-width:2.03484321;stroke-miterlimit:4;stroke-dasharray:none"
             inkscape:label="MinorXDiv0:2"
             id="path7454" />
          <path
             inkscape:connector-curvature="0"
             d="m 60,0 0,200"
             style="fill:none;stroke:#000000;stroke-width:2.03484321;stroke-miterlimit:4;stroke-dasharray:none"
             inkscape:label="MinorXDiv0:3"
             id="path7456" />
          <path
             inkscape:connector-curvature="0"
             d="m 80,0 0,200"
             style="fill:none;stroke:#000000;stroke-width:2.03484321;stroke-miterlimit:4;stroke-dasharray:none"
             inkscape:label="MinorXDiv0:4"
             id="path7458" />
          <path
             inkscape:connector-curvature="0"
             d="m 120,0 0,200"
             style="fill:none;stroke:#000000;stroke-width:2.03484321;stroke-miterlimit:4;stroke-dasharray:none"
             inkscape:label="MinorXDiv1:1"
             id="path7460" />
          <path
             inkscape:connector-curvature="0"
             d="m 140,0 0,200"
             style="fill:none;stroke:#000000;stroke-width:2.03484321;stroke-miterlimit:4;stroke-dasharray:none"
             inkscape:label="MinorXDiv1:2"
             id="path7462" />
          <path
             inkscape:connector-curvature="0"
             d="m 160,0 0,200"
             style="fill:none;stroke:#000000;stroke-width:2.03484321;stroke-miterlimit:4;stroke-dasharray:none"
             inkscape:label="MinorXDiv1:3"
             id="path7464" />
          <path
             inkscape:connector-curvature="0"
             d="m 180,0 0,200"
             style="fill:none;stroke:#000000;stroke-width:2.03484321;stroke-miterlimit:4;stroke-dasharray:none"
             inkscape:label="MinorXDiv1:4"
             id="path7466" />
        </g>
        <g
           inkscape:label="MinorYGridlines"
           id="g7468"
           style="stroke-width:2.03484321;stroke-miterlimit:4;stroke-dasharray:none"
           transform="matrix(0.98485844,0,0,0.98089908,-305.76278,783.33552)">
          <path
             inkscape:connector-curvature="0"
             d="m 0,20 200,0"
             style="fill:none;stroke:#000000;stroke-width:2.03484321;stroke-miterlimit:4;stroke-dasharray:none"
             inkscape:label="MinorXYiv0:1"
             id="path7470" />
          <path
             inkscape:connector-curvature="0"
             d="m 0,40 200,0"
             style="fill:none;stroke:#000000;stroke-width:2.03484321;stroke-miterlimit:4;stroke-dasharray:none"
             inkscape:label="MinorXYiv0:2"
             id="path7472" />
          <path
             inkscape:connector-curvature="0"
             d="m 0,60 200,0"
             style="fill:none;stroke:#000000;stroke-width:2.03484321;stroke-miterlimit:4;stroke-dasharray:none"
             inkscape:label="MinorXYiv0:3"
             id="path7474" />
          <path
             inkscape:connector-curvature="0"
             d="m 0,80 200,0"
             style="fill:none;stroke:#000000;stroke-width:2.03484321;stroke-miterlimit:4;stroke-dasharray:none"
             inkscape:label="MinorXYiv0:4"
             id="path7476" />
          <path
             inkscape:connector-curvature="0"
             d="m 0,120 200,0"
             style="fill:none;stroke:#000000;stroke-width:2.03484321;stroke-miterlimit:4;stroke-dasharray:none"
             inkscape:label="MinorXYiv1:1"
             id="path7478" />
          <path
             inkscape:connector-curvature="0"
             d="m 0,140 200,0"
             style="fill:none;stroke:#000000;stroke-width:2.03484321;stroke-miterlimit:4;stroke-dasharray:none"
             inkscape:label="MinorXYiv1:2"
             id="path7480" />
          <path
             inkscape:connector-curvature="0"
             d="m 0,160 200,0"
             style="fill:none;stroke:#000000;stroke-width:2.03484321;stroke-miterlimit:4;stroke-dasharray:none"
             inkscape:label="MinorXYiv1:3"
             id="path7482" />
          <path
             inkscape:connector-curvature="0"
             d="m 0,180 200,0"
             style="fill:none;stroke:#000000;stroke-width:2.03484321;stroke-miterlimit:4;stroke-dasharray:none"
             inkscape:label="MinorXYiv1:4"
             id="path7484" />
        </g>
        <rect
           height="196.17981"
           style="fill:none;stroke:#000000;stroke-width:5;stroke-miterlimit:4;stroke-dasharray:none"
           width="196.97169"
           x="-306.31522"
           y="783.88794"
           inkscape:label="Border"
           id="rect7486" />
      </g>
      <rect
         y="865.185"
         x="13.706429"
         height="194.957"
         width="196.04146"
         id="rect8466"
         style="fill:#391818;fill-opacity:0.10169492;fill-rule:evenodd;stroke:#000000;stroke-width:1.11193609px;stroke-linecap:butt;stroke-linejoin:miter;stroke-opacity:1" />
      <path
         inkscape:connector-curvature="0"
         id="path8460"
         d="m 119.54566,1000.7041 c -3.3185,-4.93279 -10.62403,-9.72669 -17.27847,-11.33819 -5.165617,-1.25094 -12.622579,-0.80999 -17.771661,1.0509 -2.331678,0.84267 -3.835021,1.1573 -3.686177,0.77149 0.138244,-0.35835 2.314358,-5.63231 4.835804,-11.71992 2.521446,-6.08762 7.154955,-17.41888 10.296685,-25.18058 16.790919,-41.48236 28.347529,-57.56812 45.966569,-63.98135 5.37404,-1.95612 15.1389,-2.46124 20.39614,-1.05506 4.5515,1.21742 10.21322,4.30462 13.34818,7.27844 l 2.50061,2.37209 -3.54048,0.022 c -8.91811,0.0553 -17.12329,3.86747 -24.44038,11.35497 -17.23434,17.63574 -21.37283,45.27961 -11.47667,76.66067 1.19985,3.80476 2.2902,7.17258 2.423,7.48406 0.14017,0.32876 -1.4336,0.84086 -3.75158,1.22077 -4.31873,0.70783 -9.56625,2.91322 -13.40474,5.63363 -1.32753,0.9409 -2.51858,1.7107 -2.64677,1.7107 -0.12819,0 -0.92471,-1.0281 -1.77006,-2.2846 z"
         style="fill:#a0a0a0;stroke:none;stroke-width:1px;stroke-linecap:butt;stroke-linejoin:miter;stroke-opacity:1" />
      <path
         sodipodi:nodetypes="saacssscssaaccsscssssccsscsssscss"
         inkscape:original-d="m 141.16665,1046.4264 c -7.45792,1.3791 16.64623,-20.1213 27.24942,-25.9444 1.52367,-0.8371 3.37754,-1.8315 4.95483,-1.1438 5.06268,2.2079 16.73971,30.6536 9.95983,14.9495 0,6.8823 -10.25222,3.3074 -7.29912,13.0238 2.8819,9.4819 -11.05944,-19.3291 13.60348,-7.391 6.81018,3.2967 6.1107,-1.4193 5.48552,-6.5197 -0.6252,-5.1002 -3.36035,-8.7263 -3.36035,-8.7263 0,0 -11.04045,-9.7438 -13.38934,-9.8632 -34.06243,-1.7359 -8.12145,2.1545 -14.58846,-9.0371 -7.54396,-13.05534 -12.47357,-15.55128 -14.34625,-26.22253 -3.34126,-19.03927 -1.16215,-42.17878 7.21926,-57.93129 2.89817,-5.44704 4.6046,-29.98258 13.04218,-9.17213 2.95333,7.71658 18.43613,54.18117 19.35023,32.41757 8.16895,-2.02204 -1.24461,-29.22015 -4.3324,-57.38231 -1.69512,-15.46034 -38.32458,-10.50317 -42.76189,-10.65813 -10.20044,-0.3563 -9.31777,-3.46812 -22.8766,12.54037 -152.844723,170.46935 -13.16091,13.91296 -14.54305,17.94886 -3.28269,9.58558 -16.744045,35.36682 -14.799314,29.02305 5.719777,-18.65808 -47.297579,70.37024 -36.823865,80.49334 22.383695,21.6342 3.03131,-26.78154 -7.1424,8.0388 -133.203113,455.8952 -20.255576,-7.3454 -20.255576,-7.3454 0,0 23.237481,24.9324 24.63903,28.4059 9.837519,24.3817 33.070215,-36.1219 25.796068,-33.7586 -7.60287,2.4705 17.032591,-9.9819 21.230148,-10.718 278.240339,-48.79158 13.359249,16.9839 16.203829,16.0771 1.98155,0.2108 -3.38621,-5.326 -3.09733,-1.0654 0.28888,4.2608 -25.811273,29.858 -14.505334,30.3082 140.312644,5.5849 -2748.648096,-3573.2854 29.581274,-29.5308 1535.42803,1958.5067 13.37636,-2.4554 22.83125,-8.3716 9.45487,-5.9161 8.82458,18.664 10.79368,14.4416 15.97267,6.2689 -3.28308,0.8625 -8.98389,-1.9231 -8.20379,-4.0087 1.22457,23.1765 -8.83486,25.0367 z"
         inkscape:path-effect="#path-effect2852;#path-effect4872"
         id="path2848"
         d="m 141.07536,1047.0332 c 1.74016,0.2618 3.52461,0.052 5.16967,-0.5018 1.64511,-0.5538 3.15422,-1.4458 4.48081,-2.5282 2.64899,-2.1614 4.56096,-5.0512 6.18515,-7.9513 1.64389,-2.9352 3.00907,-5.8679 4.83526,-8.5812 1.81106,-2.6908 4.08148,-5.0964 6.93048,-6.4332 1.47311,-0.6911 3.08444,-1.0824 4.69542,-1.0857 3.33361,-0.01 6.63122,1.7544 8.47955,4.5287 1.66393,2.4976 2.11774,5.7627 1.25041,8.6319 -1.77587,-1.7494 -4.31601,-2.7071 -6.80836,-2.5156 -2.84833,0.219 -5.52895,1.9309 -6.92561,4.4229 -1.39665,2.4921 -1.4577,5.6721 -0.15774,8.2159 1.29997,2.5438 3.9129,4.3574 6.75073,4.6855 2.8498,0.3295 5.64945,-0.7764 7.93143,-2.3044 2.26304,-1.5154 4.20252,-3.5047 6.15042,-5.2377 1.04977,-0.934 2.20252,-1.8825 3.21247,-2.9559 1.01856,-1.0825 1.94097,-2.351 2.44565,-3.8233 0.59559,-1.7375 0.55931,-3.6799 -0.10074,-5.3939 -0.65131,-1.6914 -1.90224,-3.1403 -3.47939,-4.0327 -4.12702,-3.7433 -8.63771,-7.0631 -13.43863,-9.8907 -5.01238,-2.9521 -10.19287,-5.3067 -14.50207,-8.9755 -7.55778,-6.4348 -11.51259,-16.17791 -14.15178,-25.91585 -2.63532,-9.72366 -4.2092,-19.80443 -3.38932,-29.79135 0.81986,-9.98648 4.15482,-19.8977 10.48997,-27.58929 3.38425,-4.10886 7.69323,-7.56966 12.73288,-8.97104 3.9677,-1.10329 8.29901,-0.86591 12.12235,0.66437 3.82334,1.53027 7.12231,4.34689 9.23306,7.88304 2.11076,3.53616 3.02423,7.77669 2.55661,11.86827 -0.46762,4.09158 -2.31434,8.01665 -5.16852,10.98537 l 0.92693,0.80181 c 6.54471,-8.42311 9.82505,-19.31237 9.02198,-29.94897 -0.80308,-10.63663 -5.6812,-20.90989 -13.41641,-28.25484 -5.63915,-5.35466 -12.721,-9.14532 -20.26962,-10.98529 -7.54866,-1.83998 -15.54286,-1.73677 -23.06609,0.17744 -8.61897,2.19302 -16.55919,6.72851 -23.13703,12.68004 -5.78422,5.23348 -10.51658,11.51376 -14.65057,18.07685 -5.818084,9.23674 -10.527081,19.11583 -14.843408,29.10673 -5.849652,13.54005 -11.092612,27.53778 -16.809836,41.10736 -5.735857,13.61381 -11.996043,26.91825 -19.96665,39.29715 -1.958379,3.0415 -4.034582,5.9912 -6.956288,7.8535 -3.335764,2.1262 -7.678975,2.605 -11.397771,1.2564 -3.718796,-1.3485 -6.745585,-4.4999 -7.943119,-8.2701 a 0.61364746,0.61364746 0 0 0 -1.11756,-0.1188 c -2.096797,3.6669 -3.022272,7.9888 -2.610928,12.1929 0.411344,4.204 2.157007,8.2645 4.924818,11.4555 2.767811,3.191 6.540934,5.4929 10.644641,6.4942 4.103706,1.0013 8.513032,0.6959 12.439479,-0.8617 3.457816,-1.3717 6.479616,-3.6649 8.992378,-6.3495 2.512179,-2.6839 4.544125,-5.7641 6.340331,-8.9232 3.62419,-6.3739 6.313216,-13.031 10.72085,-18.6788 2.506001,-3.2111 5.544494,-6.022 9.091069,-7.9462 3.546649,-1.9243 7.618464,-2.9289 11.595379,-2.5386 3.957505,0.3884 7.766845,2.1801 10.589665,4.9809 2.57929,2.5591 4.32265,5.9485 4.92426,9.5308 -0.71776,-0.266 -1.44717,-0.5005 -2.18547,-0.7026 -4.4882,-1.2285 -9.3657,-1.227 -13.787848,0.3129 -4.421684,1.5399 -8.342628,4.6606 -10.5824,8.8063 -2.239373,4.145 -2.695703,9.291 -0.923369,13.6892 0.885595,2.1977 2.304565,4.1859 4.127254,5.7111 1.822633,1.5251 4.045466,2.5789 6.394402,2.9853 3.84162,0.6645 7.819541,-0.4349 11.063841,-2.4733 3.24411,-2.0381 5.81947,-4.964 7.909,-8.0978 4.30854,-6.462 6.49159,-13.3186 11.19179,-19.1805 2.6498,-3.3048 6.01877,-6.0618 9.90873,-7.6292 3.89034,-1.5676 8.31682,-1.8859 12.24562,-0.5455 2.90509,0.9911 5.50017,2.8788 7.33778,5.3374 1.64403,2.1997 2.67803,4.8514 2.9692,7.5818 -2.64149,-1.0124 -5.46177,-1.5562 -8.29061,-1.5951 -3.42831,-0.047 -6.91541,0.6608 -9.9629,2.3048 -3.04721,1.6438 -5.63077,4.2533 -7.01056,7.4667 -1.37949,3.2126 -1.48633,7.0192 -0.0238,10.2342 0.7307,1.6062 1.83806,3.0476 3.23133,4.1443 1.3932,1.0966 3.06966,1.8421 4.83137,2.1071 z m 0.18258,-1.2136 c -1.54284,-0.2321 -3.0222,-0.8877 -4.25486,-1.8579 -1.2326,-0.9702 -2.22023,-2.2526 -2.87328,-3.6881 -1.30498,-2.8687 -1.22314,-6.3132 0.0344,-9.2418 1.25723,-2.9279 3.63058,-5.3414 6.46552,-6.8708 2.83466,-1.5292 6.10883,-2.2024 9.36336,-2.1577 3.0012,0.041 5.99374,0.6818 8.74883,1.8728 a 0.6136469,0.61365809 10.494812 0 0 0.8566,-0.5889 c -0.13817,-3.314 -1.29839,-6.5757 -3.2841,-9.2325 -1.98571,-2.6568 -4.78533,-4.6933 -7.92454,-5.7643 -4.24683,-1.4489 -8.9786,-1.0922 -13.10061,0.5687 -4.12239,1.6611 -7.65354,4.5651 -10.40754,7.9998 -4.59621,5.7323 -7.31978,13.3647 -11.25541,19.2674 -2.03255,3.0484 -4.49313,5.8248 -7.54078,7.7395 -3.04747,1.9147 -6.721592,2.9051 -10.201739,2.3031 -2.128797,-0.3682 -4.153573,-1.3261 -5.815999,-2.7172 -1.662371,-1.391 -2.963641,-3.2113 -3.776508,-5.2285 -1.624584,-4.0316 -1.215839,-8.796 0.864801,-12.6471 2.080241,-3.8504 5.745018,-6.7815 9.90624,-8.2306 4.160755,-1.449 8.782415,-1.4592 13.060185,-0.2882 1.02849,0.2815 2.03893,0.6291 3.02299,1.0398 a 0.6136466,0.61366058 8.2996251 0 0 0.84658,-0.6311 c -0.44925,-4.2351 -2.3966,-8.2923 -5.4199,-11.2919 -3.02331,-2.9997 -7.09565,-4.9151 -11.334192,-5.3311 -4.258361,-0.4179 -8.573952,0.6593 -12.300558,2.6813 -3.72668,2.0219 -6.888339,4.9576 -9.473311,8.2699 -4.474418,5.7333 -7.308559,12.6512 -10.820212,18.8272 -1.771715,3.116 -3.748902,6.1051 -6.16947,8.6912 -2.419985,2.5854 -5.296955,4.7573 -8.548895,6.0473 -3.689961,1.4638 -7.839466,1.7512 -11.69601,0.8102 -3.856544,-0.941 -7.407335,-3.1073 -10.008444,-6.1061 -2.601108,-2.9987 -4.243907,-6.82 -4.630476,-10.7708 -0.34289,-3.5045 0.303607,-7.1005 1.829266,-10.2733 1.541658,3.5419 4.564551,6.4234 8.202479,7.7426 4.076997,1.4785 8.818766,0.9558 12.475837,-1.3752 3.172997,-2.0225 5.374131,-5.1888 7.328512,-8.2241 8.026731,-12.466 14.318833,-25.84499 20.065751,-39.48506 5.765551,-13.68428 10.935854,-27.5108 16.805493,-41.09711 4.306056,-9.96712 8.986081,-19.78033 14.75522,-28.93937 4.09996,-6.50906 8.76372,-12.6891 14.43553,-17.82087 6.44702,-5.83317 14.2126,-10.26249 22.61621,-12.40071 7.33531,-1.8664 15.12571,-1.96532 22.47285,-0.17446 7.34722,1.79088 14.23617,5.4803 19.71518,10.68288 7.51441,7.1353 12.25752,17.12424 13.03768,27.45721 0.78015,10.33304 -2.4094,20.92092 -8.76731,29.1036 a 0.61364747,0.61364747 0 0 0 0.92693,0.80181 c 3.04068,-3.1627 5.00498,-7.33769 5.50316,-11.69661 0.49817,-4.35892 -0.47347,-8.86946 -2.72213,-12.63666 -2.24867,-3.76721 -5.7577,-6.76317 -9.83085,-8.39343 -4.07316,-1.63027 -8.68025,-1.88276 -12.90717,-0.70739 -5.36363,1.49147 -9.87077,5.14728 -13.35145,9.37322 -6.52765,7.92532 -9.93023,18.09119 -10.76581,28.26908 -0.83552,10.1774 0.77085,20.40888 3.42794,30.21286 2.65477,9.79542 6.68898,19.84421 14.54068,26.52921 4.41625,3.76 9.81307,6.2352 14.67489,9.0987 4.74866,2.7967 9.20921,6.0826 13.2881,9.7886 a 0.61364746,0.61364746 0 0 0 0.11556,0.083 c 1.35478,0.7497 2.43548,1.9906 2.99189,3.4355 0.55642,1.445 0.58715,3.0902 0.0851,4.5549 -0.42763,1.2475 -1.22687,2.3689 -2.17852,3.3803 -0.96025,1.0206 -2.03609,1.9028 -3.13439,2.8799 -2.038,1.8132 -3.84755,3.6819 -6.01751,5.1349 -2.15101,1.4403 -4.65766,2.3883 -7.10761,2.105 -2.43018,-0.281 -4.6856,-1.8464 -5.79883,-4.0248 -1.11322,-2.1784 -1.06052,-4.9233 0.1355,-7.0574 1.19603,-2.134 3.50987,-3.6117 5.94904,-3.7992 2.43917,-0.1875 4.95165,0.9193 6.45976,2.8455 a 0.61364746,0.61364746 0 0 0 1.04899,-0.1408 c 1.4494,-3.4529 1.05284,-7.6086 -1.02347,-10.7251 -2.07632,-3.1165 -5.75864,-5.0831 -9.50343,-5.0755 -1.8062,0 -3.59376,0.4415 -5.21424,1.2019 -3.1285,1.4678 -5.55158,4.0721 -7.42731,6.8589 -1.86059,2.7644 -3.30543,5.8412 -4.88791,8.6668 -1.60218,2.8608 -3.42328,5.5872 -5.89023,7.6001 -1.23138,1.0047 -2.61281,1.8165 -4.09652,2.316 -1.48376,0.4995 -3.07102,0.6806 -4.5955,0.4513 z"
         style="opacity:1;fill:#faf900;fill-opacity:1;fill-rule:nonzero;stroke:#180297;stroke-width:23.68920135;stroke-linecap:round;stroke-linejoin:bevel;stroke-miterlimit:4;stroke-dasharray:none;stroke-dashoffset:0;stroke-opacity:1"
         inkscape:connector-curvature="0" />
      <path
         inkscape:connector-curvature="0"
         id="path8470"
         d="m 118.40747,999.17134 c -3.60212,-4.1693 -7.87009,-7.06117 -13.28945,-9.00459 -5.578482,-2.00049 -12.373945,-2.14683 -19.04123,-0.41006 -2.442662,0.6363 -4.517585,1.07211 -4.610927,0.96848 -0.418583,-0.46468 20.128747,-49.47201 24.906467,-59.40427 12.44101,-25.86332 23.69481,-37.96393 38.67497,-41.58516 5.27251,-1.27455 14.47845,-1.133 18.86899,0.29014 3.99278,1.29421 9.1162,4.30238 11.71853,6.88042 l 1.77946,1.76286 -5.00294,0.35492 c -8.66151,0.61447 -15.25006,3.97621 -22.5043,11.48259 -11.74865,12.157 -17.11314,27.62388 -16.43256,47.37835 0.37671,10.93421 1.67493,18.04583 5.70423,31.24751 1.77705,5.82237 1.78644,5.79339 -2.07003,6.38912 -3.52766,0.54493 -9.01131,2.77875 -12.26886,4.99785 -1.54675,1.0537 -2.99732,1.91 -3.22348,1.9029 -0.22616,-0.01 -1.67016,-1.4701 -3.20887,-3.25106 z"
         style="fill:#a0a0a0;stroke:none;stroke-width:1px;stroke-linecap:butt;stroke-linejoin:miter;stroke-opacity:1" />
      <path
         inkscape:connector-curvature="0"
         id="path8472"
         d="m 117.98165,997.81818 c -8.20241,-8.69088 -18.65528,-11.59451 -30.995787,-8.61009 -2.64202,0.63895 -4.887163,1.07477 -4.9892,0.96848 -0.220567,-0.22972 -0.05475,-0.642 11.6531,-28.97103 5.031786,-12.17522 11.327957,-26.59577 13.991497,-32.04566 13.21065,-27.03041 25.84483,-39.07094 42.72335,-40.71587 6.06122,-0.59071 11.50309,-0.0267 15.82952,1.64082 3.43948,1.3256 8.68102,4.71838 10.57542,6.8453 l 1.30246,1.46232 -3.45145,0.008 c -7.30679,0.0173 -13.66417,2.57172 -20.44928,8.21655 -20.08627,16.71064 -25.5128,45.93551 -14.88685,80.17391 1.17749,3.79407 2.0247,7.01802 1.88268,7.16431 -0.14203,0.14631 -1.91131,0.64825 -3.93176,1.11543 -3.85622,0.89167 -10.39297,3.73667 -13.03049,5.67124 -0.85462,0.6269 -1.7583,1.122 -2.00817,1.1003 -0.24987,-0.022 -2.14664,-1.8326 -4.21504,-4.02418 z"
         style="fill:#ffff00;fill-opacity:1;stroke:none;stroke-width:1px;stroke-linecap:butt;stroke-linejoin:miter;stroke-opacity:1" />
    </g>
    <rect
       style="fill:#ddd9f0;fill-opacity:1;fill-rule:evenodd;stroke:#000000;stroke-width:0;stroke-linecap:butt;stroke-linejoin:miter;stroke-miterlimit:4;stroke-dasharray:none;stroke-opacity:0"
       id="rect4475"
       width="14.828126"
       height="61.453125"
       x="72.366486"
       y="799.35266" />
    <g
       id="g8363"
       transform="translate(-1.1718749,0)">
      <rect
         transform="matrix(0,-1,1,0,0,0)"
         y="18.658844"
         x="-858.39954"
         height="7.3125"
         width="48"
         id="rect7652-61"
         style="fill:url(#pattern8073-7);fill-opacity:1;fill-rule:evenodd;stroke:none;stroke-width:1px;stroke-linecap:butt;stroke-linejoin:miter;stroke-opacity:1" />
      <rect
         transform="matrix(0,-1,1,0,0,0)"
         y="155.54773"
         x="-858.39954"
         height="7.3125"
         width="48"
         id="rect7652-61-0"
         style="fill:url(#pattern8073-7-9);fill-opacity:1;fill-rule:evenodd;stroke:none;stroke-width:1px;stroke-linecap:butt;stroke-linejoin:miter;stroke-opacity:1" />
      <rect
         transform="matrix(0,-1,1,0,0,0)"
         y="116.43662"
         x="-858.39954"
         height="7.3125"
         width="48"
         id="rect7652-61-1"
         style="fill:url(#pattern8073-7-91);fill-opacity:1;fill-rule:evenodd;stroke:none;stroke-width:1px;stroke-linecap:butt;stroke-linejoin:miter;stroke-opacity:1" />
      <rect
         transform="matrix(0,-1,1,0,0,0)"
         y="77.325508"
         x="-858.39954"
         height="7.3125"
         width="48"
         id="rect7652-61-7"
         style="fill:url(#pattern8073-7-1);fill-opacity:1;fill-rule:evenodd;stroke:none;stroke-width:1px;stroke-linecap:butt;stroke-linejoin:miter;stroke-opacity:1" />
      <rect
         transform="matrix(0,-1,1,0,0,0)"
         y="38.214401"
         x="-858.39954"
         height="7.3125"
         width="48"
         id="rect7652-61-56"
         style="fill:url(#pattern8073-7-6);fill-opacity:1;fill-rule:evenodd;stroke:none;stroke-width:1px;stroke-linecap:butt;stroke-linejoin:miter;stroke-opacity:1" />
      <rect
         transform="matrix(0,-1,1,0,0,0)"
         y="175.10329"
         x="-858.39954"
         height="7.3125"
         width="48"
         id="rect7652-61-8"
         style="fill:url(#pattern8073-7-3);fill-opacity:1;fill-rule:evenodd;stroke:none;stroke-width:1px;stroke-linecap:butt;stroke-linejoin:miter;stroke-opacity:1" />
      <rect
         transform="matrix(0,-1,1,0,0,0)"
         y="135.99217"
         x="-858.39954"
         height="7.3125"
         width="48"
         id="rect7652-61-88"
         style="fill:url(#pattern8073-7-12);fill-opacity:1;fill-rule:evenodd;stroke:none;stroke-width:1px;stroke-linecap:butt;stroke-linejoin:miter;stroke-opacity:1" />
      <rect
         transform="matrix(0,-1,1,0,0,0)"
         y="96.881065"
         x="-858.39954"
         height="7.3125"
         width="48"
         id="rect7652-61-3"
         style="fill:url(#pattern8073-7-5);fill-opacity:1;fill-rule:evenodd;stroke:none;stroke-width:1px;stroke-linecap:butt;stroke-linejoin:miter;stroke-opacity:1" />
      <rect
         transform="matrix(0,-1,1,0,0,0)"
         y="57.769955"
         x="-858.39954"
         height="7.3125"
         width="48"
         id="rect7652-61-59"
         style="fill:url(#pattern8073-7-8);fill-opacity:1;fill-rule:evenodd;stroke:none;stroke-width:1px;stroke-linecap:butt;stroke-linejoin:miter;stroke-opacity:1" />
      <rect
         transform="matrix(0,-1,1,0,0,0)"
         y="194.65884"
         x="-858.39954"
         height="7.3125"
         width="48"
         id="rect7652-61-30"
         style="fill:url(#pattern8073-7-84);fill-opacity:1;fill-rule:evenodd;stroke:none;stroke-width:1px;stroke-linecap:butt;stroke-linejoin:miter;stroke-opacity:1" />
    </g>
    <rect
       style="fill:#ddd9f0;fill-opacity:1;fill-rule:evenodd;stroke:#000000;stroke-width:0;stroke-linecap:butt;stroke-linejoin:miter;stroke-miterlimit:4;stroke-dasharray:none;stroke-opacity:0"
       id="rect4475-3"
       width="14.828126"
       height="61.453125"
       x="984.39954"
       y="-8.8619518"
       transform="matrix(0,1,-1,0,0,0)" />
    <g
       id="g8375">
      <rect
         transform="scale(-1,-1)"
         y="-1054.0245"
         x="-6.1900949"
         height="7.3125"
         width="48"
         id="rect7652-61-38"
         style="fill:url(#pattern8073-7-4);fill-opacity:1;fill-rule:evenodd;stroke:none;stroke-width:1px;stroke-linecap:butt;stroke-linejoin:miter;stroke-opacity:1" />
      <rect
         transform="scale(-1,-1)"
         y="-917.13562"
         x="-6.1900949"
         height="7.3125"
         width="48"
         id="rect7652-61-0-6"
         style="fill:url(#pattern8073-7-9-8);fill-opacity:1;fill-rule:evenodd;stroke:none;stroke-width:1px;stroke-linecap:butt;stroke-linejoin:miter;stroke-opacity:1" />
      <rect
         transform="scale(-1,-1)"
         y="-956.24677"
         x="-6.1900949"
         height="7.3125"
         width="48"
         id="rect7652-61-1-0"
         style="fill:url(#pattern8073-7-91-8);fill-opacity:1;fill-rule:evenodd;stroke:none;stroke-width:1px;stroke-linecap:butt;stroke-linejoin:miter;stroke-opacity:1" />
      <rect
         transform="scale(-1,-1)"
         y="-995.35785"
         x="-6.1900949"
         height="7.3125"
         width="48"
         id="rect7652-61-7-4"
         style="fill:url(#pattern8073-7-1-5);fill-opacity:1;fill-rule:evenodd;stroke:none;stroke-width:1px;stroke-linecap:butt;stroke-linejoin:miter;stroke-opacity:1" />
      <rect
         transform="scale(-1,-1)"
         y="-1034.469"
         x="-6.1900949"
         height="7.3125"
         width="48"
         id="rect7652-61-56-8"
         style="fill:url(#pattern8073-7-6-5);fill-opacity:1;fill-rule:evenodd;stroke:none;stroke-width:1px;stroke-linecap:butt;stroke-linejoin:miter;stroke-opacity:1" />
      <rect
         transform="scale(-1,-1)"
         y="-897.58008"
         x="-6.1900949"
         height="7.3125"
         width="48"
         id="rect7652-61-8-8"
         style="fill:url(#pattern8073-7-3-4);fill-opacity:1;fill-rule:evenodd;stroke:none;stroke-width:1px;stroke-linecap:butt;stroke-linejoin:miter;stroke-opacity:1" />
      <rect
         transform="scale(-1,-1)"
         y="-936.69122"
         x="-6.1900949"
         height="7.3125"
         width="48"
         id="rect7652-61-88-8"
         style="fill:url(#pattern8073-7-12-8);fill-opacity:1;fill-rule:evenodd;stroke:none;stroke-width:1px;stroke-linecap:butt;stroke-linejoin:miter;stroke-opacity:1" />
      <rect
         transform="scale(-1,-1)"
         y="-975.80231"
         x="-6.1900949"
         height="7.3125"
         width="48"
         id="rect7652-61-3-9"
         style="fill:url(#pattern8073-7-5-2);fill-opacity:1;fill-rule:evenodd;stroke:none;stroke-width:1px;stroke-linecap:butt;stroke-linejoin:miter;stroke-opacity:1" />
      <rect
         transform="scale(-1,-1)"
         y="-1014.9135"
         x="-6.1900949"
         height="7.3125"
         width="48"
         id="rect7652-61-59-7"
         style="fill:url(#pattern8073-7-8-5);fill-opacity:1;fill-rule:evenodd;stroke:none;stroke-width:1px;stroke-linecap:butt;stroke-linejoin:miter;stroke-opacity:1" />
      <rect
         transform="scale(-1,-1)"
         y="-878.02454"
         x="-6.1900949"
         height="7.3125"
         width="48"
         id="rect7652-61-30-7"
         style="fill:url(#pattern8073-7-84-3);fill-opacity:1;fill-rule:evenodd;stroke:none;stroke-width:1px;stroke-linecap:butt;stroke-linejoin:miter;stroke-opacity:1" />
    </g>
  </g>
</svg>
