<?xml version="1.0" encoding="UTF-8" standalone="no"?>
<!-- Created with Inkscape (http://www.inkscape.org/) -->

<svg
   xmlns:dc="http://purl.org/dc/elements/1.1/"
   xmlns:cc="http://creativecommons.org/ns#"
   xmlns:rdf="http://www.w3.org/1999/02/22-rdf-syntax-ns#"
   xmlns:svg="http://www.w3.org/2000/svg"
   xmlns="http://www.w3.org/2000/svg"
   xmlns:xlink="http://www.w3.org/1999/xlink"
   xmlns:sodipodi="http://sodipodi.sourceforge.net/DTD/sodipodi-0.dtd"
   xmlns:inkscape="http://www.inkscape.org/namespaces/inkscape"
   sodipodi:docname="com.github.jeremypw.gnonograms.svg"
   inkscape:version="0.91 r13725"
   version="1.1"
   id="svg2"
   height="256"
   width="256"
   inkscape:export-filename="/media/jeremy/Shared/shared_data/Vala/gnonograms/data/icons/128/com.github.jeremypw.gnonograms.svg"
   inkscape:export-xdpi="45"
   inkscape:export-ydpi="45">
  <sodipodi:namedview
     id="base"
     pagecolor="#ffffff"
     bordercolor="#666666"
     borderopacity="1.0"
     inkscape:pageopacity="0.0"
     inkscape:pageshadow="2"
     inkscape:zoom="1.6113615"
     inkscape:cx="258.4101"
     inkscape:cy="35.252114"
     inkscape:document-units="px"
     inkscape:current-layer="layer1"
     showgrid="false"
     inkscape:window-width="1920"
     inkscape:window-height="1017"
     inkscape:window-x="0"
     inkscape:window-y="30"
     inkscape:window-maximized="1"
     fit-margin-top="0"
     fit-margin-left="0"
     fit-margin-right="0"
     fit-margin-bottom="0"
     inkscape:snap-global="false" />
  <defs
     id="defs4">
    <inkscape:path-effect
       is_visible="true"
       id="path-effect2852"
       effect="spiro" />
    <linearGradient
       id="linearGradient10390">
      <stop
         style="stop-color:#180297;stop-opacity:0.95384616;"
         offset="0"
         id="stop10392" />
      <stop
         style="stop-color:#fdfbff;stop-opacity:0.99230766;"
         offset="1"
         id="stop10394" />
    </linearGradient>
    <filter
       id="filter8348"
       inkscape:label="Specular light"
       inkscape:menu="ABCs"
       inkscape:menu-tooltip="Basic specular bevel to use for building textures"
       style="color-interpolation-filters:sRGB">
      <feGaussianBlur
         id="feGaussianBlur8350"
         result="result0"
         in="SourceAlpha"
         stdDeviation="6" />
      <feSpecularLighting
         id="feSpecularLighting8352"
         specularExponent="25"
         specularConstant="1"
         surfaceScale="10"
         lighting-color="#ffffff"
         result="result1"
         in="result0">
        <feDistantLight
           id="feDistantLight8354"
           azimuth="235"
           elevation="45" />
      </feSpecularLighting>
      <feComposite
         id="feComposite8356"
         in2="result1"
         k3="1"
         k2="1"
         operator="arithmetic"
         result="result4"
         in="SourceGraphic"
         k1="0"
         k4="0" />
      <feComposite
         id="feComposite8358"
         in2="SourceAlpha"
         operator="in"
         result="result2"
         in="result4" />
    </filter>
    <linearGradient
       inkscape:collect="always"
       xlink:href="#linearGradient10390"
       id="linearGradient3892"
       gradientUnits="userSpaceOnUse"
       gradientTransform="matrix(0.33208214,0,0,0.42208123,-41.401687,610.84394)"
       spreadMethod="pad"
       x1="104.1909"
       y1="978.05359"
       x2="701.20892"
       y2="1101.365" />
  </defs>
  <metadata
     id="metadata7">
    <rdf:RDF>
      <cc:Work
         rdf:about="">
        <dc:format>image/svg+xml</dc:format>
        <dc:type
           rdf:resource="http://purl.org/dc/dcmitype/StillImage" />
        <dc:title></dc:title>
      </cc:Work>
    </rdf:RDF>
  </metadata>
  <g
     id="layer1"
     inkscape:groupmode="layer"
     inkscape:label="Layer 1"
     transform="translate(47.278653,-803.46205)">
    <path
       sodipodi:nodetypes="saacssscssaaccsssssssscssssscsssscss"
       inkscape:original-d="m 118.73579,1053.8834 c 13.90621,4.1168 19.44913,-28.5704 34.11588,-36.4162 2.88266,-1.542 6.55005,-2.5646 9.67532,-1.6052 8.55077,2.6247 32.68773,40.5301 19.4486,18.4877 0,9.6601 -20.46898,0.6931 -14.7024,14.331 5.6275,13.309 -21.14647,-20.6857 27.01296,-3.9288 13.2983,4.6271 11.93244,-1.9923 10.71161,-9.1513 -1.22083,-7.1591 -6.56174,-12.2485 -6.56174,-12.2485 0,0 -21.55877,-13.6765 -26.14547,-13.8445 -66.51394,-2.4361 -15.8588,3.0243 -28.48698,-12.6845 -14.73119,-18.32477 -24.3572,-21.82814 -28.01405,-36.80646 -6.52446,-26.72393 -2.26931,-59.20304 14.09711,-81.31361 5.65931,-7.64556 8.99148,-42.08412 25.46756,-12.87416 5.76696,10.83116 13.53032,101.06223 15.31537,70.51438 15.95151,-2.83818 20.03964,-66.02644 14.01006,-105.55541 -3.31009,-21.70045 -74.83663,-11.67095 -83.50143,-11.88849 -19.918476,-0.50007 -29.312845,5.22425 -55.789254,27.69405 -26.47641,22.4698 -28.434988,33.56143 -42.1925069,49.33894 -10.4871085,12.02691 -129.1609291,35.91539 -112.7844891,71.75883 241.07682,527.64963 -15.33663,-9.22993 -20.74492,-12.28533 -187.67672,-106.02752 -53.07229,46.14026 -26.55018,101.31126 5.3024,11.03 -87.62761,-72.11225 88.650855,-91.20017 11.377829,-1.23203 47.543681,47.17507 61.5833864,29.30637 0,13.3737 11.4014995,26.7775 -29.1340014,0.088 -11855.36508,-7805.8239 -21.623314,14.2618 -11.688649,26.1197 9.934666,11.8578 5.288011,10.6912 8.806649,11.8937 9.789235,3.3453 23.720532,7.4586 28.565365,-6.2788 4.8448318,-13.7374 14.8768429,-31.6724 23.073438,-32.70547 543.321757,-68.48504 46.426762,20.49247 51.981367,19.21967 3.86943,0.2958 -26.18154,-7.3111 -25.617443,-1.3307 0.564094,5.9803 -9.701337,26.6379 -7.054975,30.7213 22.616551,34.8979 -5377.419932,-5002.7299 47.646822,-28.643 2998.241046,2749.0005 14.967146,-4.4335 33.429776,-12.7375 18.46259,-8.30397 15.95888,21.5625 19.80396,15.636 31.18994,8.7989 -5.13793,5.8449 -16.26994,1.9351 -16.01961,-5.6267 -6.97642,32.5312 1.84234,35.1421 z"
       inkscape:path-effect="#path-effect2852"
       id="path2848"
       d="m 118.73579,1053.8834 c 4.32555,-0.159 8.37235,-2.431 11.42861,-5.4961 3.05626,-3.0651 5.23763,-6.8832 7.18741,-10.7477 1.94979,-3.8644 3.7149,-7.8413 6.10157,-11.4523 2.38666,-3.6111 5.47584,-6.8898 9.39829,-8.7201 2.99666,-1.3983 6.38094,-1.8921 9.67532,-1.6052 4.81063,0.4189 9.45905,2.5142 12.95892,5.8411 3.49987,3.327 5.82774,7.8633 6.48968,12.6466 -1.84695,-2.0419 -4.54373,-3.29 -7.29565,-3.3766 -2.75192,-0.086 -5.5218,0.9897 -7.4934,2.9115 -1.97161,1.9218 -3.11831,4.6632 -3.10218,7.4165 0.0161,2.7532 1.19485,5.481 3.18883,7.3796 1.77418,1.6893 4.13183,2.7025 6.55575,3.0575 2.42391,0.355 4.91263,0.078 7.27356,-0.5762 4.72187,-1.3076 8.88761,-4.0543 13.18365,-6.4101 2.10614,-1.1549 4.27,-2.2292 6.20246,-3.6558 1.93246,-1.4267 3.6479,-3.2532 4.50915,-5.4955 0.94189,-2.4523 0.76288,-5.3104 -0.47761,-7.626 -1.24049,-2.3156 -3.52079,-4.0481 -6.08413,-4.6225 -8.25855,-5.4158 -17.02447,-10.0575 -26.14547,-13.8445 -9.6158,-3.9925 -19.71174,-7.0811 -28.48698,-12.6845 -13.22296,-8.44353 -22.50053,-22.11833 -28.01405,-36.80646 -5.11987,-13.63943 -7.25647,-28.52524 -5.11647,-42.93592 2.14,-14.41068 8.6967,-28.2959 19.21358,-38.37769 6.98763,-6.69855 15.85666,-11.72174 25.46756,-12.87416 8.85345,-1.0616 18.07286,1.28983 25.33635,6.46208 7.2635,5.17225 12.50107,13.11546 14.39364,21.82917 1.89257,8.71371 0.42191,18.11391 -4.04161,25.83321 -4.46352,7.71929 -11.87686,13.68327 -20.37301,16.38992 9.62711,-4.39835 18.10997,-11.27391 24.4062,-19.7818 6.29622,-8.50789 10.3923,-18.62987 11.78491,-29.12212 1.39261,-10.49225 0.0788,-21.33228 -3.78012,-31.18802 -3.85888,-9.85575 -10.25449,-18.70609 -18.40093,-25.46347 -11.24546,-9.32798 -25.58445,-14.50608 -40.11355,-16.04777 -14.52911,-1.54168 -29.26798,0.40428 -43.38788,4.15928 -20.212674,5.37529 -39.525744,14.54322 -55.789254,27.69405 -16.893297,13.66008 -30.148809,31.25772 -42.1925069,49.33894 -13.5279991,20.30961 -26.1031391,41.87141 -44.8424551,57.50231 -9.369658,7.81544 -20.252205,14.01553 -32.103992,16.91499 -11.851787,2.89946 -24.711456,2.3486 -35.838042,-2.65847 -7.33444,-3.30057 -13.70837,-8.38986 -20.74492,-12.28533 -16.80347,-9.30248 -37.64596,-11.34141 -55.66715,-4.69839 -9.01059,3.32152 -17.25977,8.72463 -23.82513,15.73314 -6.56536,7.00851 -11.42871,15.61768 -13.93691,24.88765 -2.50819,9.26996 -2.64552,19.18486 -0.28894,28.49456 2.35657,9.3096 7.21301,17.9884 13.99233,24.7902 6.77932,6.8017 15.47111,11.6974 24.82679,13.8641 9.35568,2.1667 19.34617,1.583 28.34883,-1.76 10.13845,-3.7647 18.77488,-10.8552 25.85221,-19.0327 7.07733,-8.1776 12.73346,-17.4655 18.36665,-26.6974 5.6332,-9.2319 11.31528,-18.50676 18.43569,-26.64684 7.120409,-8.14008 15.818664,-15.16581 25.996305,-18.82323 11.893719,-4.27411 25.481449,-3.59975 36.893511,1.83104 11.412062,5.43078 20.505242,15.54984 24.6898754,27.47533 -4.3798634,-2.61508 -9.4780714,-4.013 -14.5792084,-3.99759 -5.101137,0.0154 -10.190807,1.4441 -14.554793,4.08559 -4.371826,2.64623 -8.0223,6.5322 -10.180283,11.1645 -2.157983,4.6323 -2.778335,10.0052 -1.508366,14.9552 1.258787,4.9064 4.423773,9.3544 8.806649,11.8937 4.545573,2.6335 10.173359,3.1065 15.26044,1.7952 5.087081,-1.3112 9.645495,-4.3049 13.304925,-8.074 4.6665249,-4.8064 7.9036388,-10.783 11.2057636,-16.6117 3.3021248,-5.8288 6.8144983,-11.69565 11.8676744,-16.09377 4.249939,-3.69901 9.506912,-6.22943 15.049088,-7.2438 5.542175,-1.01437 11.354605,-0.50996 16.639188,1.44397 5.284583,1.95393 10.027066,5.35211 13.576261,9.72794 3.549195,4.37586 5.895529,9.71746 6.71683,15.29156 -3.785598,-2.3654 -8.178694,-3.7493 -12.636497,-3.9809 -4.457803,-0.2315 -8.970647,0.6898 -12.980946,2.6502 -5.598087,2.7366 -10.253593,7.6787 -11.893803,13.6901 -0.820105,3.0057 -0.876703,6.2303 -0.05931,9.2368 0.817395,3.0064 2.519629,5.7821 4.898136,7.7944 1.992263,1.6856 4.42982,2.8195 6.982068,3.3638 2.552248,0.5443 5.215528,0.5073 7.775195,-10e-4 5.119333,-1.0166 9.732247,-3.8786 13.549443,-7.4381 7.634392,-7.119 12.280679,-16.8782 19.340116,-24.5677 4.217397,-4.5938 9.323168,-8.4338 15.095112,-10.7947 5.771944,-2.3609 12.225864,-3.19658 18.334664,-1.9428 8.5449,1.7538 16.11559,7.7311 19.80396,15.636 -5.44985,-1.0406 -11.2162,-0.3548 -16.26994,1.9351 -3.75326,1.7006 -7.13007,4.2921 -9.56186,7.6186 -2.43179,3.3265 -3.88813,7.3975 -3.89254,11.5181 -0.004,4.1206 1.48608,8.2643 4.2803,11.2928 2.79422,3.0284 6.89866,4.864 11.01644,4.7126 z"
       style="opacity:1;fill:url(#linearGradient3892);fill-opacity:1;fill-rule:nonzero;stroke:#000000;stroke-width:0.5279336;stroke-linecap:round;stroke-linejoin:bevel;stroke-miterlimit:4;stroke-dasharray:none;stroke-dashoffset:0;stroke-opacity:1"
       inkscape:connector-curvature="0" />
  </g>
</svg>
