<?xml version="1.0" encoding="UTF-8" standalone="no"?>
<!-- Created with Inkscape (http://www.inkscape.org/) -->

<svg
   xmlns:dc="http://purl.org/dc/elements/1.1/"
   xmlns:cc="http://creativecommons.org/ns#"
   xmlns:rdf="http://www.w3.org/1999/02/22-rdf-syntax-ns#"
   xmlns:svg="http://www.w3.org/2000/svg"
   xmlns="http://www.w3.org/2000/svg"
   xmlns:xlink="http://www.w3.org/1999/xlink"
   xmlns:sodipodi="http://sodipodi.sourceforge.net/DTD/sodipodi-0.dtd"
   xmlns:inkscape="http://www.inkscape.org/namespaces/inkscape"
   sodipodi:docname="gnonograms-elementary-5.svg"
   inkscape:version="0.91 r13725"
   version="1.1"
   id="svg2"
   height="256"
   width="256"
   inkscape:export-filename="/media/Shared/shared_data/Vala/Gnonograms/gnonograms-common-data/icons/gnonograms3-32.xpm.png"
   inkscape:export-xdpi="11.25"
   inkscape:export-ydpi="11.25">
  <sodipodi:namedview
     id="base"
     pagecolor="#ffffff"
     bordercolor="#666666"
     borderopacity="1.0"
     inkscape:pageopacity="0.0"
     inkscape:pageshadow="2"
     inkscape:zoom="1.4990664"
     inkscape:cx="15.080327"
     inkscape:cy="115.81477"
     inkscape:document-units="px"
     inkscape:current-layer="layer1"
     showgrid="false"
     inkscape:window-width="1920"
     inkscape:window-height="1017"
     inkscape:window-x="0"
     inkscape:window-y="30"
     inkscape:window-maximized="1" />
  <defs
     id="defs4">
    <linearGradient
       id="linearGradient3977">
      <stop
         style="stop-color:#00026a;stop-opacity:0.97692305;"
         offset="0"
         id="stop3979" />
      <stop
         id="stop3987"
         offset="0.65217394"
         style="stop-color:#6ebfcc;stop-opacity:0.79230767;" />
      <stop
         style="stop-color:#fbffff;stop-opacity:1;"
         offset="1"
         id="stop3981" />
    </linearGradient>
    <inkscape:path-effect
       is_visible="true"
       id="path-effect2852"
       effect="spiro" />
    <linearGradient
       id="linearGradient10390">
      <stop
         style="stop-color:#180297;stop-opacity:0.95384616;"
         offset="0"
         id="stop10392" />
      <stop
         style="stop-color:#fdfbff;stop-opacity:0.99230766;"
         offset="1"
         id="stop10394" />
    </linearGradient>
    <linearGradient
       id="linearGradient8756">
      <stop
         style="stop-color:#204a87;stop-opacity:1;"
         offset="0"
         id="stop8758" />
      <stop
         style="stop-color:#204a87;stop-opacity:0;"
         offset="1"
         id="stop8760" />
    </linearGradient>
    <inkscape:path-effect
       is_visible="true"
       id="path-effect8000"
       effect="spiro" />
    <inkscape:path-effect
       effect="spiro"
       id="path-effect3663"
       is_visible="true" />
    <linearGradient
       id="linearGradient3621">
      <stop
         style="stop-color:#39229a;stop-opacity:1;"
         offset="0"
         id="stop3623" />
      <stop
         style="stop-color:#f1f6fc;stop-opacity:0;"
         offset="1"
         id="stop3625" />
    </linearGradient>
    <inkscape:path-effect
       is_visible="true"
       id="path-effect2818"
       effect="spiro" />
    <inkscape:perspective
       id="perspective10"
       inkscape:persp3d-origin="372.04724 : 350.78739 : 1"
       inkscape:vp_z="744.09448 : 526.18109 : 1"
       inkscape:vp_y="0 : 1000 : 0"
       inkscape:vp_x="0 : 526.18109 : 1"
       sodipodi:type="inkscape:persp3d" />
    <linearGradient
       spreadMethod="pad"
       gradientUnits="userSpaceOnUse"
       y2="607.01343"
       x2="567.64282"
       y1="607.01343"
       x1="80.928574"
       id="linearGradient3619"
       xlink:href="#linearGradient3621"
       inkscape:collect="always" />
    <linearGradient
       gradientTransform="matrix(0.93543972,0,0,0.92315936,56.650263,50.924039)"
       y2="607.01343"
       x2="567.64282"
       y1="607.01343"
       x1="80.928574"
       spreadMethod="pad"
       gradientUnits="userSpaceOnUse"
       id="linearGradient3661"
       xlink:href="#linearGradient3621"
       inkscape:collect="always" />
    <linearGradient
       y2="607.01343"
       x2="567.64282"
       y1="607.01343"
       x1="80.928574"
       spreadMethod="pad"
       gradientTransform="matrix(0.93543972,0,0,0.92315936,263.79314,13.781182)"
       gradientUnits="userSpaceOnUse"
       id="linearGradient3887"
       xlink:href="#linearGradient3621"
       inkscape:collect="always" />
    <linearGradient
       gradientTransform="translate(120,-4.1349623e-8)"
       y2="607.01343"
       x2="567.64282"
       y1="607.01343"
       x1="80.928574"
       spreadMethod="pad"
       gradientUnits="userSpaceOnUse"
       id="linearGradient3889"
       xlink:href="#linearGradient3621"
       inkscape:collect="always" />
    <linearGradient
       y2="607.01343"
       x2="567.64282"
       y1="607.01343"
       x1="80.928574"
       spreadMethod="pad"
       gradientTransform="translate(1.6773139e-7,-31.428572)"
       gradientUnits="userSpaceOnUse"
       id="linearGradient4622"
       xlink:href="#linearGradient3621"
       inkscape:collect="always" />
    <linearGradient
       y2="607.01343"
       x2="567.64282"
       y1="607.01343"
       x1="80.928574"
       spreadMethod="pad"
       gradientTransform="matrix(0.93543972,0,0,0.92315936,143.79314,-17.64739)"
       gradientUnits="userSpaceOnUse"
       id="linearGradient4624"
       xlink:href="#linearGradient3621"
       inkscape:collect="always" />
    <filter
       id="filter8348"
       inkscape:label="Specular light"
       inkscape:menu="ABCs"
       inkscape:menu-tooltip="Basic specular bevel to use for building textures"
       color-interpolation-filters="sRGB">
      <feGaussianBlur
         id="feGaussianBlur8350"
         result="result0"
         in="SourceAlpha"
         stdDeviation="6" />
      <feSpecularLighting
         id="feSpecularLighting8352"
         specularExponent="25"
         specularConstant="1"
         surfaceScale="10"
         lighting-color="#ffffff"
         result="result1"
         in="result0">
        <feDistantLight
           id="feDistantLight8354"
           azimuth="235"
           elevation="45" />
      </feSpecularLighting>
      <feComposite
         id="feComposite8356"
         in2="result1"
         k3="1"
         k2="1"
         operator="arithmetic"
         result="result4"
         in="SourceGraphic"
         k1="0"
         k4="0" />
      <feComposite
         id="feComposite8358"
         in2="SourceAlpha"
         operator="in"
         result="result2"
         in="result4" />
    </filter>
    <linearGradient
       inkscape:collect="always"
       xlink:href="#linearGradient10390"
       id="linearGradient10396"
       x1="-28.258823"
       y1="737.33551"
       x2="703.92487"
       y2="737.33551"
       gradientUnits="userSpaceOnUse"
       gradientTransform="matrix(0.34643667,-0.00936413,0.00869296,0.32160589,-18.084693,720.41685)" />
    <linearGradient
       inkscape:collect="always"
       xlink:href="#linearGradient10390"
       id="linearGradient2850"
       gradientUnits="userSpaceOnUse"
       x1="-28.258823"
       y1="737.33551"
       x2="703.92487"
       y2="737.33551"
       gradientTransform="matrix(0.32424225,0,0,0.367203,-18.85652,655.99927)"
       spreadMethod="pad" />
    <linearGradient
       inkscape:collect="always"
       xlink:href="#linearGradient3977"
       id="linearGradient3983"
       x1="129.5"
       y1="253.85716"
       x2="130.49998"
       y2="1.0000153"
       gradientUnits="userSpaceOnUse"
       gradientTransform="translate(-26.830252,797.09903)" />
    <linearGradient
       inkscape:collect="always"
       xlink:href="#linearGradient10390-1"
       id="linearGradient2850-7"
       gradientUnits="userSpaceOnUse"
       x1="-28.258823"
       y1="737.33551"
       x2="703.92487"
       y2="737.33551"
       gradientTransform="matrix(0.31273364,0,0,0.35404697,-17.850062,652.50294)"
       spreadMethod="pad" />
    <linearGradient
       id="linearGradient10390-1">
      <stop
         style="stop-color:#5a3dfd;stop-opacity:0.84615386;"
         offset="0"
         id="stop10392-6" />
      <stop
         style="stop-color:#ffffff;stop-opacity:0.99230766;"
         offset="1"
         id="stop10394-3" />
    </linearGradient>
    <inkscape:path-effect
       is_visible="true"
       id="path-effect2852-7"
       effect="spiro" />
    <linearGradient
       inkscape:collect="always"
       xlink:href="#linearGradient10390-1"
       id="linearGradient3833"
       gradientUnits="userSpaceOnUse"
       gradientTransform="matrix(0.28354252,0,0,0.36535665,-18.296103,637.08975)"
       spreadMethod="pad"
       x1="-28.258823"
       y1="737.33551"
       x2="600.40741"
       y2="503.6283" />
    <filter
       id="filter3854"
       inkscape:label="Liquid"
       inkscape:menu="Textures"
       inkscape:menu-tooltip="Colorizable filling with liquid transparency"
       height="2"
       y="-0.5"
       width="1.5"
       x="-0.25"
       color-interpolation-filters="sRGB">
      <feGaussianBlur
         id="feGaussianBlur3856"
         stdDeviation="72.565920577617334 74.370794223826721"
         result="result8" />
      <feTurbulence
         id="feTurbulence3858"
         seed="0"
         result="result7"
         type="turbulence"
         numOctaves="1"
         baseFrequency="0.02" />
      <feColorMatrix
         id="feColorMatrix3860"
         result="result5"
         values="1 0 0 0 0 0 1 0 0 0 0 0 1 0 0 0 0 0 4 0 " />
      <feComposite
         id="feComposite3862"
         in2="result8"
         result="result6"
         operator="in"
         in="result8" />
      <feDisplacementMap
         id="feDisplacementMap3864"
         in2="result6"
         in="result5"
         xChannelSelector="A"
         yChannelSelector="A"
         scale="120"
         result="result4" />
      <feComposite
         id="feComposite3866"
         in2="result4"
         result="result2"
         operator="in"
         in="result8" />
      <feComposite
         id="feComposite3868"
         in2="result2"
         result="fbSourceGraphic"
         in="SourceGraphic"
         operator="in" />
    </filter>
    <linearGradient
       inkscape:collect="always"
       xlink:href="#linearGradient10390-3"
       id="linearGradient2850-3"
       gradientUnits="userSpaceOnUse"
       x1="-28.258823"
       y1="737.33551"
       x2="703.92487"
       y2="737.33551"
       gradientTransform="matrix(0.31273364,0,0,0.35404697,-17.850062,652.50294)"
       spreadMethod="pad" />
    <linearGradient
       id="linearGradient10390-3">
      <stop
         style="stop-color:#1b02aa;stop-opacity:0.84615386;"
         offset="0"
         id="stop10392-64" />
      <stop
         style="stop-color:#ffffff;stop-opacity:0.99230766;"
         offset="1"
         id="stop10394-0" />
    </linearGradient>
    <inkscape:path-effect
       is_visible="true"
       id="path-effect2852-9"
       effect="spiro" />
    <linearGradient
       y2="737.33551"
       x2="703.92487"
       y1="737.33551"
       x1="-28.258823"
       spreadMethod="pad"
       gradientTransform="matrix(0.31273364,0,0,0.35404697,9.3394055,-156.79844)"
       gradientUnits="userSpaceOnUse"
       id="linearGradient3810"
       xlink:href="#linearGradient10390-3"
       inkscape:collect="always" />
    <linearGradient
       inkscape:collect="always"
       xlink:href="#linearGradient10390"
       id="linearGradient3892"
       gradientUnits="userSpaceOnUse"
       gradientTransform="matrix(0.32424225,0,0,0.367203,-18.189438,664.67133)"
       spreadMethod="pad"
       x1="-28.258823"
       y1="737.33551"
       x2="703.92487"
       y2="737.33551" />
    <linearGradient
       inkscape:collect="always"
       xlink:href="#linearGradient10390-38"
       id="linearGradient3892-3"
       gradientUnits="userSpaceOnUse"
       gradientTransform="matrix(0.32424225,0,0,0.367203,-18.85652,655.99927)"
       spreadMethod="pad"
       x1="-28.258823"
       y1="737.33551"
       x2="703.92487"
       y2="737.33551" />
    <linearGradient
       id="linearGradient10390-38">
      <stop
         style="stop-color:#180297;stop-opacity:0.95384616;"
         offset="0"
         id="stop10392-3" />
      <stop
         style="stop-color:#fdfbff;stop-opacity:0.99230766;"
         offset="1"
         id="stop10394-9" />
    </linearGradient>
    <inkscape:path-effect
       is_visible="true"
       id="path-effect2852-6"
       effect="spiro" />
    <filter
       id="filter8348-5"
       inkscape:label="Specular light"
       inkscape:menu="ABCs"
       inkscape:menu-tooltip="Basic specular bevel to use for building textures"
       color-interpolation-filters="sRGB">
      <feGaussianBlur
         id="feGaussianBlur8350-3"
         result="result0"
         in="SourceAlpha"
         stdDeviation="6" />
      <feSpecularLighting
         id="feSpecularLighting8352-0"
         specularExponent="25"
         specularConstant="1"
         surfaceScale="10"
         lighting-color="#ffffff"
         result="result1"
         in="result0">
        <feDistantLight
           id="feDistantLight8354-1"
           azimuth="235"
           elevation="45" />
      </feSpecularLighting>
      <feComposite
         id="feComposite8356-1"
         in2="result1"
         k3="1"
         k2="1"
         operator="arithmetic"
         result="result4"
         in="SourceGraphic"
         k1="0"
         k4="0" />
      <feComposite
         id="feComposite8358-6"
         in2="SourceAlpha"
         operator="in"
         result="result2"
         in="result4" />
    </filter>
    <linearGradient
       y2="737.33551"
       x2="703.92487"
       y1="737.33551"
       x1="-28.258823"
       spreadMethod="pad"
       gradientTransform="matrix(0.32424225,0,0,0.367203,-19.529746,628.87619)"
       gradientUnits="userSpaceOnUse"
       id="linearGradient3916"
       xlink:href="#linearGradient10390-38"
       inkscape:collect="always" />
    <clipPath
       clipPathUnits="userSpaceOnUse"
       id="clipPath4310">
      <path
         style="opacity:1;fill:#e1e1e1;fill-opacity:1;stroke:#000000;stroke-width:1.0828644;stroke-linejoin:miter;stroke-miterlimit:4;stroke-dasharray:none;stroke-opacity:1"
         d="M 239.26088,897.75331 A 137.49412,126.74469 0 0 1 101.76676,1024.498 137.49412,126.74469 0 0 1 -35.727376,897.75331 137.49412,126.74469 0 0 1 101.76676,771.00862 137.49412,126.74469 0 0 1 239.26088,897.75331 Z"
         id="path4312"
         inkscape:connector-curvature="0" />
    </clipPath>
    <clipPath
       clipPathUnits="userSpaceOnUse"
       id="clipPath4314">
      <path
         style="opacity:1;fill:#e1e1e1;fill-opacity:1;stroke:#000000;stroke-width:1;stroke-linejoin:miter;stroke-miterlimit:4;stroke-dasharray:none;stroke-opacity:1"
         d="M 227.32795,927.02057 A 122.40952,121.4089 0 0 1 104.91843,1048.4295 122.40952,121.4089 0 0 1 -17.491096,927.02057 122.40952,121.4089 0 0 1 104.91843,805.61167 122.40952,121.4089 0 0 1 227.32795,927.02057 Z"
         id="path4316"
         inkscape:connector-curvature="0" />
    </clipPath>
  </defs>
  <metadata
     id="metadata7">
    <rdf:RDF>
      <cc:Work
         rdf:about="">
        <dc:format>image/svg+xml</dc:format>
        <dc:type
           rdf:resource="http://purl.org/dc/dcmitype/StillImage" />
        <dc:title></dc:title>
      </cc:Work>
    </rdf:RDF>
  </metadata>
  <g
     id="layer1"
     inkscape:groupmode="layer"
     inkscape:label="Layer 1"
     transform="translate(26.830252,-797.09903)">
    <rect
       style="fill:url(#linearGradient3983);fill-opacity:1;fill-rule:evenodd;stroke:#000000;stroke-width:1px;stroke-linecap:butt;stroke-linejoin:miter;stroke-opacity:0.09132421"
       id="rect3207"
       width="257.14285"
       height="258.57144"
       x="-25.40168"
       y="798.81329"
       clip-path="url(#clipPath4314)"
       transform="matrix(0.97002725,0,0,0.97802198,-404.77586,-95.698168)" />
    <path
       style="fill:url(#linearGradient10396);fill-opacity:1;stroke:#000000;stroke-width:2.0484612;stroke-linecap:butt;stroke-linejoin:miter;stroke-miterlimit:4;stroke-dasharray:none;stroke-dashoffset:0;stroke-opacity:0.1415525;filter:url(#filter8348)"
       d="m 158.09946,1053.4762 c 3.61393,-0.7221 6.9449,-2.5424 9.8126,-4.8572 2.86769,-2.3148 5.30332,-5.1176 7.58161,-8.0144 4.55658,-5.7936 8.69818,-12.1714 14.84389,-16.2406 3.53877,-2.3431 7.69551,-3.828 11.93883,-3.9126 4.00947,-0.08 8.03487,1.1095 11.35704,3.3557 3.32217,2.2462 5.9256,5.5387 7.34516,9.2893 -1.98147,-3.0699 -5.54052,-5.0586 -9.19349,-5.1372 -3.65297,-0.079 -7.29424,1.7553 -9.4059,4.7371 -1.94408,2.7452 -2.56066,6.3576 -1.76728,9.6266 0.79338,3.2689 2.95084,6.159 5.78806,7.9661 2.83722,1.8071 6.315,2.541 9.65864,2.1727 3.34363,-0.3683 6.54003,-1.8144 9.11757,-3.9758 4.08228,-3.4233 6.5699,-8.6748 6.63269,-14.0021 0.0628,-5.3272 -2.30036,-10.636 -6.30081,-14.1545 -4.16015,-0.6711 -8.31157,-1.3963 -12.45286,-2.1753 -10.27394,-1.9327 -20.60387,-4.2374 -29.97958,-8.8618 -12.25356,-6.0439 -22.40583,-15.88542 -29.98303,-27.25485 -4.7155,-7.07552 -8.51374,-14.82176 -10.61689,-23.06043 -2.10316,-8.23867 -2.47131,-16.98898 -0.46266,-25.2512 2.00864,-8.26222 6.46759,-16.00492 13.00711,-21.43941 6.53952,-5.43448 15.19271,-8.42799 23.65637,-7.61232 4.83255,0.46573 9.50436,2.1283 13.75111,4.48108 10.17438,5.6368 17.98126,15.40239 21.23939,26.56824 3.25813,11.16584 1.92827,23.59747 -3.61801,33.82148 14.48741,-12.86044 22.3224,-32.84716 20.43428,-52.12698 -1.88813,-19.27981 -13.45177,-37.36677 -30.15891,-47.17225 -10.78649,-6.33063 -23.28683,-9.24374 -35.74465,-10.35191 -31.80322,-2.82901 -64.66623,6.05912 -90.187019,25.24603 -12.161273,9.14302 -22.587554,20.45374 -31.592166,32.71785 -6.75015,9.19358 -12.762318,18.98162 -20.473903,27.38506 -7.711586,8.40344 -17.4895789,15.49077 -28.734291,17.39939 -4.587748,0.7787 -9.324295,0.67097 -13.871893,-0.31552 l 32.922242,47.49544 c -3.1290891,-2.521 -6.9087108,-4.2275 -10.8690469,-4.9073 -3.9603362,-0.6799 -8.0926914,-0.3317 -11.8834021,1.0014 -3.79071,1.333 -7.231453,3.6479 -9.894533,6.657 -2.663081,3.0091 -4.542652,6.7057 -5.405078,10.6303 -0.862425,3.9246 -0.705812,8.0687 0.450373,11.917 1.156185,3.8484 3.309403,7.3926 6.192002,10.192 2.8826,2.7995 6.488252,4.8482 10.3687642,5.8913 3.8805117,1.0431 8.02736278,1.0784 11.9250874,0.1016 5.0288049,-1.2603 9.5385774,-4.1546 13.3162874,-7.7052 3.777709,-3.5505 6.879541,-7.7521 9.811633,-12.0277 2.932092,-4.2755 5.723295,-8.6589 8.980867,-12.692 3.257571,-4.033 7.022497,-7.7372 11.52289,-10.3109 7.136988,-4.0815 15.988207,-5.043 23.835155,-2.5894 7.846947,2.4537 14.573696,8.2863 18.114238,15.7065 -4.345764,-4.5495 -10.60464,-7.2103 -16.896132,-7.1829 -4.983169,0.022 -9.96762,1.7133 -13.844107,4.8447 -3.876488,3.1313 -6.59604,7.7007 -7.357012,12.6255 -0.760971,4.9248 0.479285,10.1554 3.485642,14.1296 3.006356,3.9742 7.764788,6.6072 12.739238,6.9026 4.285845,0.2545 8.565301,-1.1751 12.169404,-3.5083 3.604103,-2.3331 6.579855,-5.5308 9.135135,-8.981 5.110559,-6.9004 8.694546,-14.9277 14.516065,-21.2398 5.06481,-5.4916 11.72225,-9.4823 18.93246,-11.4377 7.2102,-1.9553 14.94926,-1.8789 22.14142,0.1418 10.4052,2.9235 19.58637,9.9837 25.08384,19.2892 -1.59182,-2.734 -3.94255,-5.0208 -6.71932,-6.5367 -2.77678,-1.5159 -5.97162,-2.2564 -9.13214,-2.1169 -3.16053,0.1396 -6.27765,1.1589 -8.90999,2.9137 -2.63234,1.7547 -4.77234,4.2399 -6.11697,7.1035 -1.38977,2.9598 -1.92423,6.3141 -1.53114,9.5602 0.3931,3.2461 1.71151,6.3738 3.75443,8.9269 2.04291,2.5531 4.80334,4.5243 7.87851,5.6356 3.07518,1.1113 6.45575,1.3604 9.66218,0.7197 z"
       id="path3659"
       inkscape:path-effect="#path-effect3663"
       inkscape:original-d="m 158.09946,1053.4762 c 14.59209,2.7448 19.50414,-21.7737 32.2381,-29.1122 3.58758,-2.0675 7.77002,-4.4748 11.93883,-3.9126 7.64216,1.0302 30.13507,20.1524 18.7022,12.645 0,0 -24.89655,-10.6449 -18.59939,-0.4001 6.1372,9.9848 50.49405,48.6319 22.79699,15.7896 -7.28817,-8.6419 0.33188,-28.1566 0.33188,-28.1566 0,0 -7.66445,-2.1768 -12.45286,-2.1753 -69.4392,0.019 -16.48202,2.7514 -29.97958,-8.8618 -15.74538,-13.54721 -26.54496,-14.65317 -29.98303,-27.25485 -7.11956,-26.09553 -0.34811,-65.16647 25.58393,-77.36336 4.34599,-2.04409 -4.03877,-17.3109 13.75111,4.48108 6.23932,8.09023 16.38835,83.71606 17.62138,60.38972 16.58258,-2.61238 11.52892,-73.71824 -9.72463,-99.29923 -7.92708,-9.54111 -26.70229,-10.58985 -35.74465,-10.35191 -41.57491,0.0424 -62.16177,0.40918 -90.187019,25.24603 -21.414673,18.90175 -20.182168,37.06898 -31.592166,32.71785 -197.972895,-75.49573 -37.6022094,43.85675 -49.208194,44.78445 -11.605988,0.9277 -13.871893,-0.31552 -13.871893,-0.31552 0,0 26.2750481,14.59852 32.922242,47.49544 11.906985,-6.2385 -17.979588,45.6859 -9.1158334,41.4833 34.8503464,-16.5239 26.5724394,-40.6991 43.6316774,-42.7358 565.396756,-67.50353 36.180905,14.2438 41.949393,13.1171 4.042784,0.1164 -17.60778,-11.7237 -16.896132,-7.1829 0.711647,4.5409 -10.050193,38.4324 -4.976239,38.5024 7.237617,0.1 -347.627426,-34.0081 35.820604,-33.7291 69.18575,0.05 21.98422,-4.4481 41.07388,-11.2959 19.08964,-6.8477 21.1946,23.9135 25.08384,19.2892 32.71935,5.8246 -19.1847,4.0289 -30.87842,1.3636 -16.82797,-3.8354 10.51025,23.1018 19.76398,24.8424 z"
       sodipodi:nodetypes="saacsscssaaccaccssccsscsssscss"
       inkscape:connector-curvature="0"
       transform="matrix(0.99825645,0.059026,-0.05684391,0.96135258,296.04004,207.25037)" />
    <path
       sodipodi:nodetypes="saacsscssaaccaccssccascsssscss"
       inkscape:original-d="m 138.16746,1050.1076 c 13.57791,3.5815 18.79174,-24.2412 30.8867,-32.2214 3.40758,-2.2484 7.38005,-4.8659 11.26473,-4.096 7.12131,1.4113 27.67442,23.9225 17.17161,15.0041 0,0 -23.01544,-12.9132 -17.385,-1.0298 5.48742,11.5813 45.99525,57.0434 20.92175,18.718 -6.59781,-10.0848 1.02219,-32.115 1.02219,-32.115 0,0 -7.11314,-2.7199 -11.59155,-2.8661 -64.94366,-2.1193 -15.4844,2.6311 -27.81445,-11.0353 -14.38342,-15.94217 -24.45579,-17.53706 -27.35269,-32.02091 -5.99888,-29.99317 1.32181,-74.36217 25.88315,-87.47841 4.11626,-2.19816 -3.33964,-19.87537 12.74746,5.53677 5.63082,9.42291 13.21091,96.02087 14.95381,69.4448 15.57493,-2.46917 33.36641,-72.2371 16.70901,-102.62939 -10.10066,-18.42919 -49.43546,-24.91282 -57.89836,-24.92019 -38.88408,-1.23372 -56.7112,-0.40885 -83.549737,27.06434 -20.505945,20.90547 -24.379911,29.79195 -34.941128,24.47567 -183.246025,-92.24195 -68.482843,-13.03945 -42.586787,34.95833 5.1772231,9.59587 -13.422478,11.09156 -13.422478,11.09156 0,0 -4.335019,73.06239 1.050157,110.80093 3.09671,1.1348 10.54297,-11.1864 16.3062929,-16.2538 12.9877429,-11.4197 25.0214221,-29.95827 41.0275961,-31.75595 530.494774,-59.58116 37.453457,24.03695 42.876927,22.92965 3.778079,0.2574 -16.171336,-13.91914 -15.620556,-8.7163 0.550777,5.2027 -9.814245,37.0187 -5.070593,37.2551 6.766471,0.3373 -324.816274,-43.00149 33.797179,-30.8578 64.704837,2.1911 20.673217,-4.397 38.699967,-11.6213 18.02675,-7.22428 19.21777,27.9374 22.97208,22.7814 30.4536,7.6549 -18.04437,4.0052 -28.91358,0.6037 -15.64142,-4.8951 9.24574,26.6818 17.8563,28.9533 z"
       inkscape:path-effect="#path-effect2852"
       id="path2848"
       d="m 138.16746,1050.1076 c 3.6912,-0.8853 7.01668,-2.9736 9.7882,-5.5673 2.77152,-2.5938 5.02797,-5.6863 7.10852,-8.8613 4.16109,-6.3498 7.86558,-13.3065 13.98998,-17.7928 3.27318,-2.3977 7.20869,-3.9903 11.26473,-4.096 4.17398,-0.1087 8.3694,1.4039 11.51362,4.1513 3.14422,2.7473 5.20592,6.7019 5.65799,10.8528 -1.93764,-2.7003 -5.12942,-4.4597 -8.44719,-4.6562 -3.31777,-0.1965 -6.69494,1.1737 -8.93781,3.6264 -2.28679,2.5007 -3.34269,6.0418 -2.94237,9.4067 0.40031,3.3649 2.21249,6.5129 4.82987,8.6652 2.61739,2.1523 5.99928,3.3157 9.38733,3.3799 3.38805,0.064 6.76748,-0.9472 9.64692,-2.7338 5.3765,-3.3359 8.91236,-9.4596 9.11365,-15.7837 0.20129,-6.3241 -2.93799,-12.6602 -8.09146,-16.3313 -3.87899,-0.8927 -7.74352,-1.8482 -11.59155,-2.8661 -9.68478,-2.5618 -19.40927,-5.5845 -27.81445,-11.0353 -11.89222,-7.71212 -20.29932,-19.72653 -27.35269,-32.02091 -4.79175,-8.35227 -9.12643,-17.03149 -11.89831,-26.25309 -2.77188,-9.2216 -3.94145,-19.04105 -2.35191,-28.53813 1.58954,-9.49709 6.07818,-18.6535 13.32904,-24.9896 3.62543,-3.16806 7.90577,-5.60446 12.52081,-6.97622 4.61503,-1.37175 9.56259,-1.66644 14.28352,-0.72137 4.57116,0.91509 8.85977,2.96407 12.74746,5.53677 10.93298,7.23497 18.87046,18.85837 21.63025,31.67471 2.75978,12.81633 0.30979,26.67651 -6.67644,37.77009 17.29139,-9.79589 29.75815,-27.69493 32.95167,-47.31005 3.19353,-19.61512 -2.95164,-40.54435 -16.24266,-55.31934 -14.44336,-16.05599 -36.31136,-24.28252 -57.89836,-24.92019 -29.68854,-0.87699 -58.287997,11.44311 -83.549737,27.06434 -12.100211,7.48247 -23.691874,15.76609 -34.941128,24.47567 -14.522909,11.24416 -28.47826078,23.19842 -42.586787,34.95833 -4.458391,3.71621 -8.932605,7.41344 -13.422478,11.09156 l 1.050157,110.80093 c 5.667741,-5.178 11.110033,-10.6028 16.3062929,-16.2538 5.9546831,-6.4758 11.6058466,-13.2679 18.189942,-19.1027 6.5840951,-5.83471 14.2507181,-10.74042 22.8376541,-12.65325 8.61636,-1.91939 17.905911,-0.64864 25.690254,3.51426 7.784344,4.1629 13.999014,11.18349 17.186673,19.41539 -3.636323,-4.9594 -9.490474,-8.226 -15.620556,-8.7163 -4.989935,-0.3991 -10.124996,1.0245 -14.128812,4.0291 -4.003817,3.0047 -6.820512,7.5813 -7.586035,12.5283 -0.765523,4.947 0.559209,10.2046 3.667069,14.1289 3.107859,3.9243 7.973244,6.4298 12.977185,6.5688 3.975859,0.1104 7.909633,-1.2192 11.276652,-3.3364 3.367019,-2.1173 6.202659,-4.9938 8.670584,-8.1129 4.935852,-6.2383 8.508096,-13.5142 13.849943,-19.4085 4.770266,-5.2636 10.915408,-9.3046 17.699677,-11.4105 6.78427,-2.10595 14.19461,-2.24651 21.00029,-0.2108 10.75835,3.218 19.66449,12.0502 22.97208,22.7814 -3.58344,-4.1846 -9.09147,-6.6502 -14.59954,-6.5352 -5.50807,0.115 -10.90839,2.8084 -14.31404,7.1389 -2.29358,2.9165 -3.69068,6.5319 -3.93393,10.2342 -0.24326,3.7023 0.67141,7.4753 2.60046,10.6447 1.92906,3.1694 4.86597,5.7184 8.28323,7.1636 3.41726,1.4452 7.29858,1.7762 10.90654,0.9108 z"
       style="fill:url(#linearGradient3892);fill-opacity:1;stroke:#000000;stroke-width:2.11681628;stroke-linecap:butt;stroke-linejoin:miter;stroke-miterlimit:4;stroke-dasharray:none;stroke-dashoffset:0;stroke-opacity:0.59117645;filter:url(#filter8348)"
       inkscape:connector-curvature="0"
       transform="matrix(0.99824439,0,0,1,4.3919368,-13.341637)" />
    <path
       sodipodi:nodetypes="saacsscssaaccaccssccascsssscss"
       inkscape:original-d="m 136.82715,1014.3124 c 13.57791,3.5815 18.79174,-24.2412 30.8867,-32.2214 3.40758,-2.2484 7.38005,-4.8659 11.26473,-4.096 7.12131,1.4113 27.67442,23.9225 17.17161,15.0041 0,0 -23.01544,-12.9132 -17.385,-1.0298 5.48742,11.5813 45.99525,57.0434 20.92175,18.718 -6.59781,-10.0848 1.02219,-32.115 1.02219,-32.115 0,0 -7.11314,-2.7199 -11.59155,-2.8661 -64.94366,-2.1193 -15.4844,2.6311 -27.81445,-11.03522 -14.38342,-15.94219 -24.45579,-17.53708 -27.35269,-32.02093 -5.99888,-29.99317 1.32181,-74.36217 25.88315,-87.47841 4.11626,-2.19816 -3.33964,-19.87537 12.74746,5.53677 5.63082,9.42291 13.21091,96.02087 14.95381,69.4448 15.57493,-2.46917 33.36641,-72.2371 16.70901,-102.62939 -10.10066,-18.42919 -49.43546,-24.91282 -57.89836,-24.92019 -38.88408,-1.23372 -56.711198,-0.40885 -83.54974,27.06434 -20.50594,20.90547 -24.379906,29.79195 -34.941123,24.47567 -183.246027,-92.24195 -68.482843,-13.03945 -42.586787,34.95833 5.1772226,9.59587 -13.422478,11.09156 -13.422478,11.09156 0,0 -4.335019,73.06239 1.050157,110.80087 3.09671,1.1348 10.54297,-11.1864 16.306293,-16.2538 12.9877426,-11.4197 25.021422,-29.95821 41.027596,-31.75589 530.494772,-59.58116 37.453452,24.03689 42.876924,22.92959 3.77808,0.2574 -16.171332,-13.91908 -15.620552,-8.71626 0.55078,5.20276 -9.81425,37.01866 -5.07059,37.25506 6.76647,0.3373 -324.81628,-43.00143 33.797172,-30.8578 64.704838,2.1911 20.673218,-4.39697 38.699968,-11.62124 18.02675,-7.22428 19.21777,27.93734 22.97208,22.78134 30.4536,7.6549 -18.04437,4.0052 -28.91358,0.6037 -15.64142,-4.8951 9.24574,26.6818 17.8563,28.9533 z"
       inkscape:path-effect="#path-effect2852-6"
       id="path2848-6"
       d="m 136.82715,1014.3124 c 3.6912,-0.8853 7.01668,-2.9736 9.7882,-5.5673 2.77152,-2.5938 5.02797,-5.6863 7.10852,-8.86126 4.16109,-6.34984 7.86558,-13.30654 13.98998,-17.79284 3.27318,-2.3977 7.20869,-3.99034 11.26473,-4.096 4.17398,-0.10873 8.3694,1.40394 11.51362,4.15128 3.14422,2.74733 5.20592,6.70197 5.65799,10.85282 -1.93764,-2.70033 -5.12942,-4.45969 -8.44719,-4.65622 -3.31777,-0.19652 -6.69494,1.17372 -8.93781,3.62642 -2.28679,2.50072 -3.34269,6.04175 -2.94237,9.4067 0.40031,3.3649 2.21249,6.5129 4.82987,8.6652 2.61739,2.1523 5.99928,3.3157 9.38733,3.3799 3.38805,0.064 6.76748,-0.9472 9.64692,-2.7338 5.3765,-3.3359 8.91236,-9.4596 9.11365,-15.78369 0.20129,-6.32412 -2.93799,-12.66025 -8.09146,-16.33131 -3.87899,-0.89268 -7.74352,-1.84822 -11.59155,-2.8661 -9.68477,-2.56181 -19.40927,-5.58447 -27.81445,-11.03522 -11.89224,-7.7121 -20.29933,-19.72654 -27.35269,-32.02093 -4.79174,-8.35227 -9.12641,-17.03149 -11.89829,-26.25309 -2.77188,-9.2216 -3.94145,-19.04105 -2.35191,-28.53813 1.58953,-9.49708 6.07818,-18.65349 13.32903,-24.9896 3.62543,-3.16805 7.90576,-5.60446 12.5208,-6.97622 4.61504,-1.37175 9.56259,-1.66644 14.28352,-0.72137 4.57116,0.91509 8.85977,2.96407 12.74746,5.53677 10.93298,7.23497 18.87045,18.85837 21.63024,31.67471 2.75979,12.81633 0.3098,26.67651 -6.67643,37.77009 17.29139,-9.79589 29.75815,-27.69493 32.95167,-47.31005 3.19353,-19.61512 -2.95164,-40.54435 -16.24266,-55.31934 -14.44336,-16.05599 -36.31136,-24.28251 -57.89836,-24.92019 -29.68854,-0.87699 -58.288,11.4431 -83.54974,27.06434 -12.10021,7.48247 -23.691871,15.76609 -34.941123,24.47567 -14.522908,11.24416 -28.47826069,23.19842 -42.586787,34.95833 -4.458391,3.71621 -8.932605,7.41344 -13.422478,11.09156 l 1.050157,110.80087 c 5.667738,-5.17801 11.11003,-10.60279 16.306293,-16.2538 5.9546821,-6.47581 11.60584922,-13.26793 18.1899465,-19.10265 6.5840975,-5.83472 14.2507195,-10.74041 22.8376495,-12.65324 8.616353,-1.91938 17.905892,-0.64864 25.690232,3.51425 7.78434,4.16288 13.999015,11.18343 17.186692,19.41534 -3.636329,-4.95936 -9.490478,-8.22598 -15.620552,-8.71626 -4.989927,-0.39909 -10.124977,1.02446 -14.128785,4.02915 -4.003809,3.00469 -6.820497,7.58129 -7.58602,12.52827 -0.765523,4.94698 0.559205,10.20456 3.667057,14.12883 3.107852,3.92431 7.973226,6.42981 12.977158,6.56881 3.975858,0.1104 7.909633,-1.2192 11.276652,-3.3364 3.367018,-2.1173 6.202656,-4.99377 8.67058,-8.1129 4.935848,-6.23827 8.508089,-13.51416 13.84994,-19.4085 4.770268,-5.26364 10.915415,-9.30454 17.699688,-11.41047 6.78427,-2.10594 14.19461,-2.24649 21.00028,-0.21077 10.75833,3.21804 19.66446,12.05021 22.97208,22.78134 -3.58344,-4.18462 -9.09147,-6.65017 -14.59954,-6.53516 -5.50807,0.115 -10.90839,2.80831 -14.31404,7.13886 -2.29358,2.91646 -3.69068,6.53186 -3.93393,10.23417 -0.24326,3.70231 0.67141,7.47533 2.60046,10.64473 1.92906,3.1694 4.86597,5.7184 8.28323,7.1636 3.41726,1.4452 7.29858,1.7762 10.90654,0.9108 z"
       style="fill:url(#linearGradient3916);fill-opacity:1;stroke:#000000;stroke-width:2.11681628;stroke-linecap:butt;stroke-linejoin:miter;stroke-miterlimit:4;stroke-dasharray:none;stroke-dashoffset:0;stroke-opacity:0.62058824;filter:url(#filter8348-5)"
       inkscape:connector-curvature="0"
       transform="matrix(0.87544976,0,0,0.94768416,-44.877701,335.06174)"
       clip-path="url(#clipPath4310)" />
  </g>
</svg>
