<?xml version="1.0" encoding="UTF-8" standalone="no"?>
<!-- Created with Inkscape (http://www.inkscape.org/) -->

<svg
   xmlns:dc="http://purl.org/dc/elements/1.1/"
   xmlns:cc="http://creativecommons.org/ns#"
   xmlns:rdf="http://www.w3.org/1999/02/22-rdf-syntax-ns#"
   xmlns:svg="http://www.w3.org/2000/svg"
   xmlns="http://www.w3.org/2000/svg"
   xmlns:xlink="http://www.w3.org/1999/xlink"
   xmlns:sodipodi="http://sodipodi.sourceforge.net/DTD/sodipodi-0.dtd"
   xmlns:inkscape="http://www.inkscape.org/namespaces/inkscape"
   sodipodi:docname="gnonograms-elementary.svg"
   inkscape:version="0.91 r13725"
   version="1.1"
   id="svg2"
   height="256"
   width="256"
   inkscape:export-filename="/media/Shared/shared_data/Vala/Gnonograms/gnonograms-common-data/icons/gnonograms3-32.xpm.png"
   inkscape:export-xdpi="11.25"
   inkscape:export-ydpi="11.25">
  <sodipodi:namedview
     id="base"
     pagecolor="#ffffff"
     bordercolor="#666666"
     borderopacity="1.0"
     inkscape:pageopacity="0.0"
     inkscape:pageshadow="2"
     inkscape:zoom="2.2788093"
     inkscape:cx="86.510266"
     inkscape:cy="129.91671"
     inkscape:document-units="px"
     inkscape:current-layer="layer1"
     showgrid="false"
     inkscape:window-width="1920"
     inkscape:window-height="1017"
     inkscape:window-x="0"
     inkscape:window-y="30"
     inkscape:window-maximized="1"
     fit-margin-top="0"
     fit-margin-left="0"
     fit-margin-right="0"
     fit-margin-bottom="0" />
  <defs
     id="defs4">
    <inkscape:path-effect
       is_visible="true"
       id="path-effect2852"
       effect="spiro" />
    <linearGradient
       id="linearGradient10390">
      <stop
         style="stop-color:#180297;stop-opacity:0.95384616;"
         offset="0"
         id="stop10392" />
      <stop
         style="stop-color:#fdfbff;stop-opacity:0.99230766;"
         offset="1"
         id="stop10394" />
    </linearGradient>
    <filter
       id="filter8348"
       inkscape:label="Specular light"
       inkscape:menu="ABCs"
       inkscape:menu-tooltip="Basic specular bevel to use for building textures"
       style="color-interpolation-filters:sRGB">
      <feGaussianBlur
         id="feGaussianBlur8350"
         result="result0"
         in="SourceAlpha"
         stdDeviation="6" />
      <feSpecularLighting
         id="feSpecularLighting8352"
         specularExponent="25"
         specularConstant="1"
         surfaceScale="10"
         lighting-color="#ffffff"
         result="result1"
         in="result0">
        <feDistantLight
           id="feDistantLight8354"
           azimuth="235"
           elevation="45" />
      </feSpecularLighting>
      <feComposite
         id="feComposite8356"
         in2="result1"
         k3="1"
         k2="1"
         operator="arithmetic"
         result="result4"
         in="SourceGraphic"
         k1="0"
         k4="0" />
      <feComposite
         id="feComposite8358"
         in2="SourceAlpha"
         operator="in"
         result="result2"
         in="result4" />
    </filter>
    <linearGradient
       inkscape:collect="always"
       xlink:href="#linearGradient10390"
       id="linearGradient3892"
       gradientUnits="userSpaceOnUse"
       gradientTransform="matrix(0.33208214,0,0,0.42208123,-39.401687,616.84394)"
       spreadMethod="pad"
       x1="214.44977"
       y1="1019.2225"
       x2="842.30292"
       y2="836.70795" />
  </defs>
  <metadata
     id="metadata7">
    <rdf:RDF>
      <cc:Work
         rdf:about="">
        <dc:format>image/svg+xml</dc:format>
        <dc:type
           rdf:resource="http://purl.org/dc/dcmitype/StillImage" />
        <dc:title></dc:title>
      </cc:Work>
    </rdf:RDF>
  </metadata>
  <g
     id="layer1"
     inkscape:groupmode="layer"
     inkscape:label="Layer 1"
     transform="translate(47.278653,-803.46205)">
    <path
       sodipodi:nodetypes="saacsscssaaccaccssccascsssscss"
       inkscape:original-d="m 120.73579,1059.8834 c 13.90621,4.1168 19.2461,-27.864 31.63351,-37.0368 3.48997,-2.5844 7.55849,-5.5931 11.5371,-4.7082 7.2935,1.6222 28.34357,27.4977 17.58681,17.2465 0,0 -23.57194,-14.8431 -17.80536,-1.1837 5.6201,13.3121 47.10738,65.5685 21.42762,21.5154 -6.75734,-11.592 1.04691,-36.9146 1.04691,-36.9146 0,0 -7.28513,-3.1264 -11.87183,-3.2944 -66.51394,-2.4361 -15.8588,3.0243 -28.48698,-12.6845 -14.73119,-18.32477 -25.04711,-20.15801 -28.01405,-36.80646 -6.14393,-34.47563 1.35377,-85.47555 26.50898,-100.552 4.21579,-2.52668 -3.42039,-22.84573 13.05569,6.36423 5.76696,10.83116 13.53033,110.37113 15.31538,79.82328 15.95151,-2.83818 34.17318,-83.03288 17.11302,-117.96728 -10.34489,-21.18342 -50.63077,-28.63603 -59.2983,-28.6445 -39.824262,-1.4181 -58.082426,-0.46995 -85.569896,31.10909 -21.001761,24.02978 -24.969397,34.24434 -35.785975,28.13354 -187.676759,-106.02745 -70.1387,-14.98818 -43.616499,40.18283 5.302404,11.02997 -13.747022,12.74919 -13.747022,12.74919 0,0 -4.439836,83.98148 1.075549,127.36008 3.171586,1.3044 10.79789,-12.8582 16.700565,-18.6829 13.301775,-13.1264 25.6264187,-34.43556 42.019608,-36.5019 543.32169,-68.48553 38.35905,27.6293 43.913655,26.3565 3.86943,0.2958 -16.562345,-15.99938 -15.998248,-10.019 0.564094,5.9803 -10.051545,42.5511 -5.193195,42.8229 6.930078,0.3877 -332.670052,-49.42806 34.614365,-35.4695 66.269343,2.5186 21.173078,-5.0541 39.635703,-13.3581 18.46262,-8.30394 19.68244,32.1126 23.52752,26.1861 31.18994,8.7989 -18.48067,4.6037 -29.61268,0.6939 -16.01962,-5.6267 9.46929,30.6694 18.28805,33.2803 z"
       inkscape:path-effect="#path-effect2852"
       id="path2848"
       d="m 120.73579,1059.8834 c 3.98879,-1.1349 7.5047,-3.6096 10.36168,-6.6156 2.85698,-3.006 5.10157,-6.5375 7.14641,-10.1454 4.08968,-7.2158 7.65596,-15.0854 14.12542,-20.2758 3.29292,-2.6419 7.3214,-4.483 11.5371,-4.7082 4.60963,-0.2462 9.29167,1.5221 12.58755,4.7542 3.29588,3.2321 5.15539,7.8787 4.99926,12.4923 -2.07616,-2.6308 -5.29574,-4.3255 -8.63969,-4.5478 -3.34394,-0.2223 -6.75953,1.0313 -9.16567,3.3641 -2.62655,2.5465 -3.98395,6.301 -3.75533,9.9522 0.22861,3.6512 1.99586,7.152 4.68788,9.6291 2.69202,2.4772 6.26404,3.9369 9.91111,4.2237 3.64707,0.2867 7.35257,-0.5745 10.58396,-2.2896 3.29609,-1.7494 6.11641,-4.3851 8.08464,-7.5554 1.96823,-3.1702 3.07937,-6.8671 3.18516,-10.5971 0.10578,-3.7301 -0.79406,-7.4839 -2.57945,-10.7607 -1.78539,-3.2767 -4.4518,-6.068 -7.64344,-8.0014 -3.9781,-1.0211 -7.93638,-2.1196 -11.87183,-3.2944 -10.00906,-2.988 -20.03056,-6.5527 -28.48698,-12.6845 -12.59351,-9.13156 -20.63411,-23.11272 -28.01405,-36.80646 -5.24923,-9.74013 -10.37802,-19.60477 -13.94284,-30.07933 -3.56483,-10.47457 -5.532459,-21.64916 -4.288046,-32.64352 1.244416,-10.99435 5.901596,-21.80932 14.050966,-29.29345 4.07469,-3.74206 8.97636,-6.60895 14.2896,-8.15023 5.31325,-1.54128 11.03468,-1.73714 16.3993,-0.38547 4.72209,1.18978 9.08936,3.53899 13.05569,6.36423 12.17936,8.67543 20.83445,22.15746 23.65208,36.84286 2.81763,14.68539 -0.23305,30.41337 -8.3367,42.98042 18.8545,-12.24598 32.0492,-32.85798 35.27683,-55.10743 3.22764,-22.24946 -3.56623,-45.76112 -18.16381,-62.85985 -14.65535,-17.16639 -36.75405,-27.5395 -59.2983,-28.6445 -15.44208,-0.75689 -30.904533,2.62776 -45.251716,8.38875 -14.347183,5.76099 -27.65335,13.85283 -40.31818,22.72034 -12.435232,8.70675 -24.315125,18.1906 -35.785975,28.13354 -14.9387645,12.94893 -29.18277,26.67324 -43.616499,40.18283 -4.562837,4.2707 -9.145242,8.52049 -13.747022,12.74919 l 1.075549,127.36008 c 5.888636,-5.9297 11.465719,-12.1688 16.700565,-18.6829 5.930299,-7.3795 11.442816,-15.1357 18.114337,-21.8526 6.67152,-6.71693 14.6999885,-12.43827 23.905271,-14.6493 9.196121,-2.20883 19.236006,-0.66663 27.345217,4.20043 8.10921,4.86706 14.192366,13.00177 16.568438,22.15607 -3.749419,-5.2556 -9.633068,-8.9402 -15.998248,-10.019 -6.095811,-1.0331 -12.592201,0.3395 -17.667866,3.8699 -5.075664,3.5304 -8.642341,9.203 -9.482971,15.3283 -0.840629,6.1253 1.100566,12.6059 5.27561,17.1661 4.175043,4.5602 10.529765,7.0716 16.682032,6.4586 4.25245,-0.4237 8.288529,-2.2583 11.711523,-4.8168 3.422994,-2.5585 6.267468,-5.8211 8.752282,-9.298 4.969627,-6.9537 8.6051,-14.8509 14.15056,-21.3547 4.779739,-5.6057 10.958041,-10.0649 17.902843,-12.5226 6.944801,-2.45762 14.6512,-2.86537 21.73286,-0.8355 5.94562,1.7042 11.3927,5.1116 15.5264,9.7124 4.1337,4.6008 6.9407,10.3802 8.00112,16.4737 -3.99452,-3.7343 -9.48126,-5.8257 -14.94798,-5.6976 -5.46672,0.1281 -10.84948,2.4742 -14.6647,6.3915 -2.993927,3.0741 -5.020517,7.0863 -5.671108,11.3278 -0.65059,4.2415 0.08572,8.6914 2.109613,12.4753 2.023895,3.7838 5.330485,6.875 9.260945,8.5969 3.93047,1.7219 8.46132,2.0546 12.5886,0.8803 z"
       style="opacity:1;fill:url(#linearGradient3892);fill-opacity:1;fill-rule:nonzero;stroke:#000000;stroke-width:0.5279336;stroke-linecap:round;stroke-linejoin:bevel;stroke-miterlimit:4;stroke-dasharray:none;stroke-dashoffset:0;stroke-opacity:1"
       inkscape:connector-curvature="0" />
  </g>
</svg>
