<?xml version="1.0" encoding="UTF-8" standalone="no"?>
<!-- Created with Inkscape (http://www.inkscape.org/) -->

<svg
   xmlns:dc="http://purl.org/dc/elements/1.1/"
   xmlns:cc="http://creativecommons.org/ns#"
   xmlns:rdf="http://www.w3.org/1999/02/22-rdf-syntax-ns#"
   xmlns:svg="http://www.w3.org/2000/svg"
   xmlns="http://www.w3.org/2000/svg"
   xmlns:xlink="http://www.w3.org/1999/xlink"
   xmlns:sodipodi="http://sodipodi.sourceforge.net/DTD/sodipodi-0.dtd"
   xmlns:inkscape="http://www.inkscape.org/namespaces/inkscape"
   sodipodi:docname="gnonograms-elementary.svg"
   inkscape:version="0.91 r13725"
   version="1.1"
   id="svg2"
   height="64.002396"
   width="64.015335"
   inkscape:export-filename="/media/Shared/shared_data/Vala/Gnonograms/gnonograms-common-data/icons/gnonograms3-32.xpm.png"
   inkscape:export-xdpi="11.25"
   inkscape:export-ydpi="11.25">
  <sodipodi:namedview
     id="base"
     pagecolor="#ffffff"
     bordercolor="#666666"
     borderopacity="1.0"
     inkscape:pageopacity="0.0"
     inkscape:pageshadow="2"
     inkscape:zoom="2.2788093"
     inkscape:cx="-219.21625"
     inkscape:cy="35.212725"
     inkscape:document-units="px"
     inkscape:current-layer="layer1"
     showgrid="false"
     inkscape:window-width="1920"
     inkscape:window-height="1017"
     inkscape:window-x="0"
     inkscape:window-y="30"
     inkscape:window-maximized="1"
     fit-margin-top="0"
     fit-margin-left="0"
     fit-margin-right="0"
     fit-margin-bottom="0" />
  <defs
     id="defs4">
    <inkscape:path-effect
       is_visible="true"
       id="path-effect2852"
       effect="spiro" />
    <linearGradient
       id="linearGradient10390">
      <stop
         style="stop-color:#180297;stop-opacity:0.95384616;"
         offset="0"
         id="stop10392" />
      <stop
         style="stop-color:#fdfbff;stop-opacity:0.99230766;"
         offset="1"
         id="stop10394" />
    </linearGradient>
    <filter
       id="filter8348"
       inkscape:label="Specular light"
       inkscape:menu="ABCs"
       inkscape:menu-tooltip="Basic specular bevel to use for building textures"
       style="color-interpolation-filters:sRGB">
      <feGaussianBlur
         id="feGaussianBlur8350"
         result="result0"
         in="SourceAlpha"
         stdDeviation="6" />
      <feSpecularLighting
         id="feSpecularLighting8352"
         specularExponent="25"
         specularConstant="1"
         surfaceScale="10"
         lighting-color="#ffffff"
         result="result1"
         in="result0">
        <feDistantLight
           id="feDistantLight8354"
           azimuth="235"
           elevation="45" />
      </feSpecularLighting>
      <feComposite
         id="feComposite8356"
         in2="result1"
         k3="1"
         k2="1"
         operator="arithmetic"
         result="result4"
         in="SourceGraphic"
         k1="0"
         k4="0" />
      <feComposite
         id="feComposite8358"
         in2="SourceAlpha"
         operator="in"
         result="result2"
         in="result4" />
    </filter>
    <linearGradient
       inkscape:collect="always"
       xlink:href="#linearGradient10390"
       id="linearGradient3892"
       gradientUnits="userSpaceOnUse"
       gradientTransform="matrix(0.08253684,0,0,0.10545089,50.511638,853.8301)"
       spreadMethod="pad"
       x1="214.44977"
       y1="1019.2225"
       x2="842.30292"
       y2="836.70795" />
  </defs>
  <metadata
     id="metadata7">
    <rdf:RDF>
      <cc:Work
         rdf:about="">
        <dc:format>image/svg+xml</dc:format>
        <dc:type
           rdf:resource="http://purl.org/dc/dcmitype/StillImage" />
        <dc:title></dc:title>
      </cc:Work>
    </rdf:RDF>
  </metadata>
  <g
     id="layer1"
     inkscape:groupmode="layer"
     inkscape:label="Layer 1"
     transform="translate(-48.250376,-900.75566)">
    <path
       sodipodi:nodetypes="saacsscssaaccaccssccascsssscss"
       inkscape:original-d="m 90.31276,964.5171 c 3.4563,1.02854 4.783495,-6.96142 7.862304,-9.25311 0.867409,-0.64567 1.878616,-1.39735 2.867466,-1.17627 1.81275,0.40528 7.04461,6.86988 4.37109,4.30878 0,0 -5.858651,-3.70833 -4.42541,-0.29572 1.39684,3.32585 11.70823,16.38132 5.3257,5.37532 -1.67949,-2.8961 0.2602,-9.22259 0.2602,-9.22259 0,0 -1.81067,-0.78109 -2.95066,-0.82306 -16.531608,-0.60862 -3.941603,0.75558 -7.080257,-3.16904 -3.66134,-4.57818 -6.225295,-5.03618 -6.962708,-9.19556 -1.527035,-8.61324 0.33647,-21.35483 6.588635,-25.12146 1.047805,-0.63126 -0.850116,-5.70768 3.244906,1.59001 1.433334,2.70601 3.362874,27.57463 3.806534,19.94269 3.96465,-0.70908 8.49352,-20.74456 4.25333,-29.47242 -2.57115,-5.29237 -12.583946,-7.15429 -14.738204,-7.15641 -9.898059,-0.35429 -14.436006,-0.11741 -21.267837,7.77215 -5.21985,6.0035 -6.20598,8.55546 -8.89437,7.02876 -46.645831,-26.48942 -17.432515,-3.74458 -10.840595,10.0391 1.317878,2.75568 -3.416733,3.1852 -3.416733,3.1852 0,0 -1.103492,20.98156 0.267321,31.81907 0.788277,0.32588 2.683745,-3.21243 4.150816,-4.66765 3.306069,-3.27944 6.369279,-8.60322 10.443699,-9.11947 135.039053,-17.11012 9.533891,6.90278 10.914451,6.58479 0.961722,0.0739 -4.116462,-3.99721 -3.976259,-2.5031 0.140202,1.49409 -2.498246,10.63076 -1.290735,10.69869 1.722426,0.0969 -82.682964,-12.34889 8.603174,-8.86155 16.470811,0.62923 5.26243,-1.2627 9.851194,-3.33733 4.588764,-2.07462 4.891941,8.02287 5.847614,6.54222 7.752054,2.19828 -4.59325,1.15016 -7.36004,0.17336 -3.981572,-1.40575 2.353532,7.66229 4.545374,8.3146 z"
       inkscape:path-effect="#path-effect2852"
       id="path2848"
       d="m 90.31276,964.5171 c 0.993873,-0.28485 1.869016,-0.90393 2.579307,-1.65521 0.710291,-0.75127 1.267379,-1.63327 1.774593,-2.53419 1.014428,-1.80184 1.898111,-3.76654 3.508404,-5.06371 0.817763,-0.65875 1.81895,-1.11881 2.867466,-1.17627 1.14986,-0.063 2.31845,0.37916 3.13857,1.18759 0.82011,0.80842 1.27902,1.97055 1.23252,3.12119 -0.51702,-0.65235 -1.31668,-1.0724 -2.14722,-1.1279 -0.83053,-0.0555 -1.67898,0.25442 -2.27819,0.83218 -0.65622,0.63272 -0.996892,1.56742 -0.94223,2.47735 0.0547,0.90993 0.49286,1.78333 1.16209,2.40226 0.66924,0.61893 1.55836,0.98491 2.46693,1.05878 0.90856,0.0739 1.83244,-0.13814 2.63891,-0.56307 0.82578,-0.4351 1.53285,-1.09295 2.02631,-1.88524 0.49346,-0.79229 0.77205,-1.717 0.79837,-2.65003 0.0263,-0.93303 -0.19968,-1.87198 -0.64769,-2.69083 -0.448,-0.81886 -1.11685,-1.51552 -1.91679,-1.99649 -0.9888,-0.25506 -1.97261,-0.52948 -2.95066,-0.82306 -2.48877,-0.74705 -4.980176,-1.63877 -7.080257,-3.16904 -3.134921,-2.28432 -5.126669,-5.77872 -6.962708,-9.19556 -1.308533,-2.43516 -2.591512,-4.89873 -3.48625,-7.51439 -0.894738,-2.61567 -1.393096,-5.40626 -1.088504,-8.15389 0.304592,-2.74764 1.462733,-5.45281 3.496947,-7.32477 1.017107,-0.93598 2.241668,-1.65291 3.569326,-2.03747 1.327658,-0.38457 2.757557,-0.43175 4.097116,-0.0909 1.174108,0.29871 2.259276,0.88553 3.244906,1.59001 3.038224,2.17158 5.195214,5.54106 5.895394,9.20935 0.70018,3.66829 -0.0641,7.59537 -2.08886,10.73334 4.69843,-3.07054 7.98207,-8.22024 8.78378,-13.77548 0.80171,-5.55525 -0.89191,-11.42324 -4.53045,-15.69694 -3.6404,-4.27589 -9.129498,-6.87676 -14.738204,-7.15641 -3.840981,-0.19151 -7.687448,0.65504 -11.253309,2.09534 -3.565861,1.44029 -6.870019,3.46279 -10.014528,5.67681 -3.091133,2.17644 -6.043923,4.54543 -8.89437,7.02876 -3.713696,3.2354 -7.253372,6.66402 -10.840595,10.0391 -1.134024,1.06696 -2.272951,2.12871 -3.416733,3.1852 l 0.267321,31.81907 c 1.464653,-1.48121 2.850842,-3.04 4.150816,-4.66765 1.47192,-1.84294 2.838648,-3.7801 4.495912,-5.45833 1.657264,-1.67823 3.654827,-3.10859 5.947787,-3.66114 2.290257,-0.55189 4.792121,-0.1656 6.809265,1.05136 2.017143,1.21696 3.525473,3.25006 4.105186,5.53343 -0.932176,-1.3085 -2.393347,-2.22832 -3.976259,-2.5031 -1.527116,-0.26509 -3.157335,0.0745 -4.431211,0.95748 -1.273876,0.88295 -2.169043,2.30523 -2.378628,3.84095 -0.209585,1.53572 0.280478,3.16014 1.330764,4.29999 1.050286,1.13985 2.646921,1.7627 4.18834,1.60027 1.058772,-0.11157 2.06192,-0.57299 2.912368,-1.21345 0.850449,-0.64046 1.556764,-1.4551 2.173887,-2.32263 1.234245,-1.73506 2.137632,-3.70332 3.516919,-5.32547 1.186776,-1.39574 2.720995,-2.50769 4.446999,-3.12204 1.726005,-0.61436 3.64269,-0.7189 5.404195,-0.21529 1.483215,0.42405 2.841577,1.27555 3.869622,2.42571 1.028045,1.15017 1.722384,2.59519 1.977992,4.11651 -0.995997,-0.92223 -2.358153,-1.4376 -3.71517,-1.40564 -1.357018,0.032 -2.693398,0.6109 -3.64487,1.579 -0.751781,0.76492 -1.262657,1.76567 -1.429258,2.82516 -0.166601,1.05949 0.01387,2.17252 0.517423,3.11948 0.503549,0.94695 1.328989,1.72112 2.311136,2.15201 0.982147,0.43089 2.115072,0.51344 3.146073,0.21795 z"
       style="opacity:1;fill:url(#linearGradient3892);fill-opacity:1;fill-rule:nonzero;stroke:#000000;stroke-width:0.13155507;stroke-linecap:round;stroke-linejoin:bevel;stroke-miterlimit:4;stroke-dasharray:none;stroke-dashoffset:0;stroke-opacity:1"
       inkscape:connector-curvature="0" />
  </g>
</svg>
